<svg width="115" height="50" viewBox="0 0 115 50" fill="none" xmlns="http://www.w3.org/2000/svg">
<g clip-path="url(#clip0_72_267)">
<path opacity="0.2" fill-rule="evenodd" clip-rule="evenodd" d="M52.8685 41.7411L55.3432 36.8304C55.3432 36.8304 56.0181 35.2679 56.918 35.2679C57.5929 35.2679 97.4129 35.2679 98.0878 35.2679C98.7627 35.2679 99.6626 34.375 99.6626 33.7054V30.5804C99.6626 29.9107 98.7627 29.0179 98.0878 29.0179H64.342C63.4422 29.0179 62.7672 29.0179 61.8674 27.9018C60.9675 26.5625 61.8674 24.5536 61.8674 24.5536L69.9663 8.70536C69.9663 8.70536 71.0912 6.47321 73.116 6.47321H112.711C113.386 6.47321 114.286 5.80357 114.286 4.91071C114.286 4.01786 114.286 2.45536 114.286 1.5625C114.286 0.669643 113.386 0 112.711 0H70.1913C67.0417 0 65.6919 2.67857 65.6919 2.67857L45.8944 40.8482C45.8944 40.8482 44.7695 43.0804 42.9697 43.0804H30.8212C28.7965 43.0804 27.6716 40.8482 27.6716 40.8482L7.42417 1.5625C7.42417 1.5625 6.74925 0 5.84936 0H1.12496C-0.449848 0 0.225068 1.5625 0.225068 1.5625L23.1722 45.9821C23.1722 45.9821 24.972 49.3304 27.6716 49.3304H103.712C109.561 49.3304 114.511 46.6518 114.511 39.9554V22.7679C114.511 18.5268 110.236 14.2857 105.962 14.2857H76.9405C76.0406 14.2857 75.3657 15.8482 75.3657 15.8482L73.5659 18.9732C73.5659 18.9732 72.666 20.5357 74.4658 20.5357H103.487C105.737 20.5357 107.762 22.7679 107.762 24.7768V38.3929C107.762 40.625 105.512 42.6339 103.487 42.6339H53.7684C52.1936 43.3036 52.8685 41.7411 52.8685 41.7411Z" fill="#ADB7D0"/>
<path opacity="0.2" fill-rule="evenodd" clip-rule="evenodd" d="M39.1452 27.2321L52.4185 1.78564C52.4185 1.78564 53.3184 0.223145 51.7436 0.223145H22.4973C20.9225 0.223145 21.5974 1.78564 21.5974 1.78564L34.8707 27.2321C34.8707 27.2321 35.5456 28.7946 37.1204 28.7946C38.4703 29.0178 39.1452 27.2321 39.1452 27.2321Z" fill="#ADB7D0"/>
</g>
<defs>
<clipPath id="clip0_72_267">
<rect width="114.286" height="50" fill="white"/>
</clipPath>
</defs>
</svg>
