<svg width="163" height="50" viewBox="0 0 163 50" fill="none" xmlns="http://www.w3.org/2000/svg">
<g opacity="0.2" clip-path="url(#clip0_72_234)">
<path d="M15.359 9.47488C14.0056 7.24234 11.1355 6.59043 8.94652 6.59043C7.60227 6.59043 5.80389 7.03694 5.80389 8.30503C5.80389 9.29627 6.71216 9.62669 10.3907 10.6001C13.4152 11.3949 16.0129 13.1273 16.0129 17.0119C16.0129 21.3967 12.2163 23.9596 7.99283 23.9596C5.38746 24.0081 2.83686 23.2213 0.726621 21.7181V15.8332C1.98004 17.8692 5.268 18.9587 7.46603 18.9587C8.65588 18.9587 10.5723 18.7176 10.5723 17.2441C10.5723 16.3511 10.1 16.0743 6.03096 14.9223C1.73481 13.7167 0 11.7163 0 8.4747C0 3.82208 3.7421 1.06266 8.34706 1.06266C10.8431 0.995932 13.2969 1.70533 15.359 3.08981V9.47488Z" fill="#ADB7D0"/>
<path d="M32.2983 12.3594C31.7607 11.6992 31.0773 11.1679 30.3 10.8059C29.5226 10.4438 28.6715 10.2605 27.8114 10.2698C24.9957 10.2698 23.6152 11.7701 23.6152 14.6545C23.6152 16.7799 24.7233 18.7534 27.6297 18.7534C29.6915 18.7534 31.0721 17.7801 32.2983 16.128V21.3432C31.5731 22.2085 30.6509 22.8938 29.6063 23.3437C28.5617 23.7936 27.4241 23.9955 26.2855 23.9329C20.2636 23.9329 17.8113 19.3696 17.8113 14.2169C17.8113 8.42124 20.6269 4.53662 26.7941 4.53662C27.8112 4.49056 28.8267 4.65518 29.775 5.01978C30.7232 5.38438 31.5828 5.94084 32.2983 6.65307V12.3594Z" fill="#ADB7D0"/>
<path d="M35.123 0.651855H41.1086V8.38538H41.1631C41.4923 7.23299 42.2122 6.2258 43.2033 5.53068C44.1944 4.83556 45.3973 4.49423 46.6127 4.56327C49.6101 4.56327 51.7718 6.25107 51.7718 9.59095V23.4327H45.7499V12.8058C45.7499 11.1805 45.4229 10.1268 43.6518 10.1268C41.4992 10.1268 41.1086 11.9128 41.1086 13.9489V23.4327H35.123V0.651855Z" fill="#ADB7D0"/>
<path d="M54.8599 5.09022H60.4912V9.82321H60.5457C60.9726 7.37634 62.1079 4.55441 65.1597 4.55441C66.0238 4.54019 66.8773 4.74306 67.6393 5.1438V12.029C67.29 11.5629 66.828 11.1898 66.2951 10.9435C65.7623 10.6971 65.1754 10.5853 64.5875 10.618C62.1352 10.618 60.8454 12.7077 60.8454 15.3599V23.3971H54.8599V5.09022Z" fill="#ADB7D0"/>
<path d="M81.6177 12.1004C81.4633 10.2429 79.8738 9.42132 77.9846 9.42132C77.1808 9.38116 76.3899 9.63139 75.7609 10.1249C75.1318 10.6183 74.7081 11.321 74.5694 12.1004H81.6177ZM77.4487 0H83.407L83.1981 0.232184L78.2298 3.35774H73.8882L77.4487 0ZM84.5787 21.4324C83.2889 23.022 80.6004 23.9954 78.2207 23.9954C71.8628 23.9954 69.1379 20.4233 69.1379 14.4311C69.1379 8.43901 71.5085 4.60797 78.1208 4.60797C83.298 4.60797 85.6322 8.01929 85.6322 13.0559C85.6224 14.1142 85.5374 15.1705 85.3779 16.2172H74.4786C74.8964 18.4587 76.7221 19.6642 79.1835 19.6642C80.2286 19.7014 81.267 19.4845 82.2065 19.0328C83.146 18.581 83.9577 17.9084 84.5696 17.0745L84.5787 21.4324Z" fill="#ADB7D0"/>
<path d="M93.2618 14.1275C93.2618 16.5386 93.7704 18.7801 96.2228 18.7801C98.6751 18.7801 99.3109 16.9941 99.3109 14.5115C99.3109 12.0289 98.7387 10.1 96.1683 10.1C93.834 10.1 93.2618 12.4218 93.2618 14.1275ZM99.3382 20.5393H99.2837C98.3209 22.4236 96.9766 23.9507 93.8885 23.9507C91.3453 23.9507 87.4579 22.0039 87.4579 14.1811C87.4579 10.2339 88.5024 4.55434 93.8885 4.55434C97.122 4.55434 97.9667 5.876 98.9203 8.28715H99.0021V0.651855H104.806V23.4327H99.3563L99.3382 20.5393Z" fill="#ADB7D0"/>
<path d="M119.665 12.1003C119.52 10.2428 117.931 9.42127 116.032 9.42127C115.23 9.38139 114.44 9.63193 113.812 10.1255C113.185 10.6192 112.763 11.3217 112.626 12.1003H119.665ZM122.617 21.4323C121.328 23.0219 118.63 23.9953 116.259 23.9953C109.847 23.9953 107.177 20.4232 107.177 14.4311C107.177 8.43895 109.538 4.60791 116.159 4.60791C121.337 4.60791 123.671 8.01923 123.671 13.0558C123.674 14.1279 123.604 15.1989 123.462 16.2618H112.563C112.981 18.5032 114.806 19.7088 117.259 19.7088C118.305 19.7475 119.345 19.5313 120.287 19.0795C121.228 18.6277 122.041 17.9543 122.654 17.1191L122.617 21.4323Z" fill="#ADB7D0"/>
<path d="M126.087 5.09011H131.7V9.8231H131.764C132.182 7.37623 133.317 4.5543 136.369 4.5543C137.236 4.5413 138.092 4.74405 138.857 5.14369V12.0288C138.507 11.564 138.045 11.1918 137.512 10.9456C136.98 10.6994 136.393 10.5868 135.806 10.6179C133.344 10.6179 132.063 12.7075 132.063 15.3598V23.3969H126.069L126.087 5.09011Z" fill="#ADB7D0"/>
<path d="M7.76576 34.3275H1.54406V39.4623H7.5296V40.2392H1.54406V45.4544H7.902V46.2135H0.717529V33.5505H7.76576V34.3275Z" fill="#ADB7D0"/>
<path d="M15.5134 37.096H16.4671L13.2881 41.5611L16.6487 46.2494H15.6859L12.8249 42.1773L9.99104 46.2137H9.08276L12.4161 41.5254L9.26442 37.0603H10.1727L12.843 40.9092L15.5134 37.096Z" fill="#ADB7D0"/>
<path d="M25.7497 41.9717C25.8241 43.1258 25.5321 44.2741 24.9141 45.258C24.6063 45.6409 24.2077 45.9438 23.7533 46.1399C23.2988 46.3361 22.8023 46.4197 22.3073 46.3832C21.574 46.4065 20.8531 46.1933 20.2546 45.776C19.7099 45.3818 19.3164 44.8187 19.1374 44.1775C19.1374 44.5079 19.1374 44.8472 19.1374 45.1866C19.1374 45.5259 19.1374 45.8831 19.1374 46.2403V49.8838H18.3381V37.0958H19.0738V39.1766C19.285 38.5244 19.7057 37.9572 20.2728 37.5602C20.8824 37.1537 21.6074 36.9473 22.3436 36.9708C22.8389 36.928 23.3371 37.0096 23.7915 37.2079C24.2459 37.4063 24.6415 37.715 24.9413 38.105C25.526 39.0845 25.801 40.2129 25.7315 41.3466L25.7497 41.9717ZM24.9413 41.3734C24.9481 40.8548 24.8994 40.337 24.796 39.8285C24.722 39.4192 24.5678 39.0279 24.3418 38.6765C24.1367 38.3718 23.8509 38.1279 23.5153 37.971C23.1208 37.7897 22.6879 37.7039 22.2528 37.721C21.8008 37.7113 21.3528 37.8061 20.9449 37.9978C20.567 38.1681 20.2298 38.4146 19.9549 38.7211C19.6879 39.026 19.4815 39.3773 19.3463 39.757C19.2036 40.1526 19.1329 40.5697 19.1374 40.9894V42.1503C19.1315 42.6109 19.202 43.0694 19.3463 43.5077C19.4922 43.9045 19.7073 44.2732 19.9821 44.5972C20.2483 44.9145 20.5794 45.1731 20.954 45.3563C21.3544 45.5408 21.7925 45.6324 22.2346 45.6242C22.6376 45.6544 23.0415 45.5805 23.4064 45.4097C23.7713 45.239 24.0844 44.9773 24.3146 44.6508C24.7735 43.8327 24.9906 42.9047 24.9413 41.9717V41.3734Z" fill="#ADB7D0"/>
<path d="M28.3836 42.2754C28.3929 42.7466 28.4631 43.2147 28.5925 43.6685C28.6988 44.0599 28.8876 44.425 29.1466 44.7401C29.4025 45.0464 29.734 45.2831 30.1093 45.4277C30.5642 45.5985 31.0486 45.6804 31.5353 45.6688C32.0021 45.6859 32.4691 45.6439 32.925 45.5438C33.3222 45.4405 33.7085 45.2999 34.0785 45.1241L34.2692 45.7671C33.8909 45.9614 33.4918 46.1142 33.0794 46.2225C32.5744 46.3459 32.0556 46.406 31.5353 46.4011C30.9138 46.4173 30.2955 46.3079 29.7188 46.0796C29.2407 45.8872 28.8192 45.5802 28.4926 45.1866C28.1511 44.7694 27.9118 44.2805 27.7932 43.7578C27.6423 43.1742 27.5691 42.5739 27.5752 41.9717V41.3734C27.568 40.7723 27.6351 40.1726 27.7751 39.5874C27.89 39.0859 28.1062 38.6121 28.4108 38.1943C28.7116 37.8084 29.1047 37.5016 29.5553 37.3013C30.096 37.0809 30.6777 36.9744 31.2628 36.9887C31.8506 36.9651 32.4348 37.0879 32.9613 37.3459C33.3793 37.575 33.7322 37.9036 33.9877 38.3014C34.2442 38.7112 34.417 39.1662 34.4963 39.641C34.5875 40.148 34.6331 40.662 34.6325 41.177V42.2932L28.3836 42.2754ZM28.3836 41.6145H33.8333V41.1591C33.8326 40.7138 33.7992 40.2691 33.7333 39.8285C33.6712 39.4379 33.5422 39.0605 33.3519 38.7122C33.1631 38.3913 32.8902 38.1261 32.5617 37.9442C32.1458 37.7375 31.683 37.6392 31.2174 37.6585C30.7424 37.6421 30.2699 37.7338 29.8368 37.9264C29.4687 38.0923 29.1544 38.355 28.9286 38.6854C28.6921 39.0366 28.5313 39.4317 28.4563 39.8464C28.3536 40.3399 28.3049 40.8429 28.3109 41.3466L28.3836 41.6145Z" fill="#ADB7D0"/>
<path d="M41.272 37.8461H41.0904C40.6148 37.8369 40.1422 37.9219 39.7007 38.0962C39.3034 38.2551 38.9512 38.5064 38.6744 38.8285C38.3827 39.1558 38.1631 39.5389 38.0295 39.9537C37.8796 40.4215 37.806 40.9098 37.8115 41.4004V46.2137H37.0122V37.096H37.7297V39.4268C37.8997 38.7495 38.2885 38.1448 38.8378 37.7033C39.4659 37.2288 40.2446 36.9883 41.0359 37.0246H41.2357L41.272 37.8461Z" fill="#ADB7D0"/>
<path d="M41.7808 37.0958H43.5973L43.7245 33.9346H44.3512V37.1405H47.4484V37.8281H44.3512V43.5256C44.3506 43.8481 44.3718 44.1703 44.4148 44.49C44.4458 44.7268 44.5329 44.9532 44.6691 45.1509C44.793 45.3306 44.9708 45.468 45.1777 45.5438C45.4423 45.638 45.7231 45.6804 46.0043 45.6688C46.2818 45.6695 46.5587 45.6426 46.8308 45.5884C47.0889 45.5384 47.3414 45.4636 47.5847 45.3652L47.7663 46.0349C47.4974 46.138 47.2211 46.2216 46.9398 46.285C46.6141 46.3513 46.2823 46.3842 45.9498 46.3832C45.5455 46.3942 45.1425 46.3337 44.7599 46.2046C44.4692 46.096 44.2168 45.9067 44.0333 45.6599C43.8366 45.3967 43.7087 45.0901 43.6609 44.7669C43.5971 44.3593 43.5758 43.9463 43.5973 43.5345V37.7835H41.7808V37.0958Z" fill="#ADB7D0"/>
<path d="M51.5719 45.651C52.1828 45.6708 52.7888 45.5387 53.334 45.267C53.5595 45.1356 53.743 44.9446 53.8634 44.7156C53.9839 44.4867 54.0365 44.2291 54.0152 43.9722C54.0239 43.7059 53.9744 43.441 53.8698 43.1952C53.7699 42.9776 53.6171 42.7874 53.4248 42.6416C53.2023 42.4663 52.9543 42.3248 52.6891 42.2218C52.3984 42.0968 52.0715 41.9718 51.6991 41.8378C51.3267 41.7039 50.9089 41.561 50.5456 41.4271C50.2223 41.2955 49.9171 41.1245 49.6373 40.918C49.3789 40.7219 49.1679 40.4718 49.0197 40.1858C48.8543 39.8464 48.7763 39.4723 48.7926 39.0963C48.7676 38.7908 48.8229 38.484 48.9534 38.2057C49.0838 37.9273 49.2849 37.6866 49.5374 37.5067C50.2125 37.1162 50.9896 36.9299 51.7717 36.9709C52.27 36.9659 52.7671 37.0199 53.2522 37.1316C53.676 37.2256 54.092 37.3509 54.4966 37.5067L54.3331 38.1943C53.9637 38.0361 53.5807 37.9105 53.1886 37.8193C52.7242 37.7138 52.2482 37.6658 51.7717 37.6764C51.199 37.6442 50.6273 37.7548 50.1096 37.9979C49.9212 38.1115 49.7688 38.2744 49.6693 38.4684C49.5699 38.6624 49.5273 38.8798 49.5465 39.0963C49.5389 39.3662 49.6014 39.6336 49.7281 39.8732C49.859 40.0945 50.0391 40.2837 50.2549 40.4269C50.4942 40.5896 50.7537 40.7216 51.0269 40.8198C51.3267 40.9359 51.6446 41.052 51.9352 41.1591C52.4257 41.3258 52.8435 41.4866 53.1886 41.6414C53.5226 41.767 53.8305 41.9516 54.0969 42.1861C54.3231 42.389 54.5 42.6393 54.6146 42.9184C54.7436 43.2549 54.8052 43.6127 54.7963 43.9722C54.8048 44.3484 54.7239 44.7215 54.5601 45.0616C54.412 45.3581 54.1902 45.613 53.9153 45.8028C53.6102 45.9979 53.2717 46.1371 52.9162 46.2136C52.4857 46.2996 52.0474 46.3415 51.6082 46.3386C51.078 46.3415 50.5487 46.2937 50.0278 46.1958C49.5795 46.1157 49.1432 45.9807 48.729 45.7939L48.9016 45.0795C49.2868 45.2617 49.6922 45.3996 50.1096 45.4903C50.5888 45.6006 51.0797 45.6546 51.5719 45.651Z" fill="#ADB7D0"/>
<path d="M62.0444 34.1758C62.1369 34.1639 62.2311 34.1748 62.3183 34.2076C62.4055 34.2403 62.483 34.2938 62.5439 34.3633C62.6433 34.4973 62.6886 34.6628 62.6711 34.8277C62.675 34.9842 62.6272 35.1378 62.5349 35.2653C62.472 35.332 62.3939 35.383 62.3071 35.414C62.2202 35.4451 62.127 35.4553 62.0353 35.4439C61.9436 35.4546 61.8507 35.444 61.7639 35.413C61.6772 35.382 61.599 35.3314 61.5358 35.2653C61.4466 35.1367 61.402 34.9832 61.4086 34.8277C61.402 34.6778 61.4467 34.5299 61.5358 34.408C61.5931 34.3296 61.6701 34.2671 61.7592 34.2264C61.8482 34.1858 61.9465 34.1683 62.0444 34.1758ZM62.4531 46.2137H61.6357V37.096H62.4531V46.2137Z" fill="#ADB7D0"/>
<path d="M71.6358 40.5073C71.685 39.775 71.5211 39.044 71.1635 38.3998C70.9447 38.1428 70.6636 37.9442 70.346 37.8224C70.0285 37.7007 69.6849 37.6597 69.3469 37.7032C68.8737 37.6978 68.4042 37.7858 67.9663 37.9622C67.5763 38.1256 67.2263 38.3692 66.94 38.6766C66.6548 38.9934 66.4385 39.3642 66.3042 39.7661C66.1474 40.2172 66.0706 40.6914 66.0771 41.1681V46.2047H65.2778V37.096H66.0044V39.266C66.1895 38.5845 66.6184 37.9915 67.2125 37.5961C67.8575 37.1604 68.6285 36.9411 69.4105 36.9709C69.8899 36.9568 70.3677 37.0326 70.8183 37.1942C71.1753 37.3358 71.4884 37.5667 71.7266 37.864C71.9779 38.1778 72.152 38.5446 72.2352 38.9356C72.3509 39.4213 72.4058 39.9192 72.3987 40.418V46.2137H71.5994L71.6358 40.5073Z" fill="#ADB7D0"/>
<path d="M80.664 46.2136H79.8647V33.4524H80.664V46.2136Z" fill="#ADB7D0"/>
<path d="M83.9248 34.1758C84.0187 34.1639 84.1141 34.1748 84.2027 34.2075C84.2914 34.2402 84.3706 34.2937 84.4334 34.3633C84.5184 34.4872 84.5627 34.6336 84.5606 34.783C84.563 34.938 84.5188 35.0903 84.4334 35.2206C84.3688 35.2874 84.2891 35.3384 84.2007 35.3694C84.1124 35.4004 84.0179 35.4106 83.9248 35.3992C83.8331 35.4099 83.7402 35.3993 83.6534 35.3683C83.5666 35.3373 83.4885 35.2867 83.4252 35.2206C83.3399 35.0903 83.2956 34.938 83.2981 34.783C83.2959 34.6336 83.3403 34.4872 83.4252 34.3633C83.4867 34.2944 83.5643 34.2413 83.6514 34.2086C83.7384 34.176 83.8323 34.1647 83.9248 34.1758ZM84.3335 46.2136H83.5615V37.0959H84.3789L84.3335 46.2136Z" fill="#ADB7D0"/>
<path d="M94.3699 37.0959V37.712H92.4989C92.9182 37.8746 93.2678 38.1742 93.4889 38.5604C93.7312 39.0141 93.8501 39.5217 93.8341 40.0339V40.1857C93.8769 40.606 93.8233 41.0304 93.6771 41.4276C93.5309 41.8249 93.2959 42.1847 92.9894 42.4807C92.2228 43.0047 91.295 43.2508 90.3644 43.1773C89.9938 43.1784 89.6236 43.1546 89.2563 43.1059C88.9394 43.0666 88.632 42.9729 88.3481 42.829L87.4398 43.9631C87.4526 44.1426 87.5077 44.3168 87.6007 44.4717C87.6937 44.6267 87.8221 44.7583 87.9757 44.8562C88.2904 45.0235 88.6443 45.1066 89.002 45.0973H90.8912C91.7523 45.0188 92.6148 45.2332 93.3345 45.7045C93.5811 45.931 93.7728 46.2091 93.8955 46.5183C94.0181 46.8274 94.0685 47.1597 94.043 47.4906C94.043 49.1694 92.8259 49.9999 90.4099 49.9999C89.8746 50.0057 89.3399 49.9668 88.8113 49.8838C88.3854 49.8237 87.9735 49.6907 87.5942 49.4909C87.2733 49.3243 87.0084 49.07 86.8312 48.7586C86.649 48.3987 86.5615 47.9995 86.5769 47.5977C86.5725 47.3487 86.6125 47.1009 86.695 46.8655C86.769 46.6628 86.8698 46.4707 86.9947 46.2939C87.1205 46.136 87.2637 45.9923 87.4216 45.8653C87.5749 45.7508 87.7357 45.6464 87.903 45.5527C87.6039 45.4413 87.3448 45.2456 87.1582 44.9901C86.8984 44.6769 86.7402 44.2943 86.7041 43.8917L87.7577 42.5254C87.4455 42.2707 87.2048 41.9418 87.0583 41.5699C86.9119 41.1235 86.8564 40.6532 86.8948 40.1857V40.0428C86.8556 39.6276 86.9101 39.2089 87.0546 38.8168C87.199 38.4247 87.4298 38.0688 87.7304 37.7745C88.496 37.2406 89.4292 36.9906 90.3644 37.0691L94.3699 37.0959ZM87.3944 47.5977C87.3726 47.8735 87.4354 48.1493 87.5747 48.3897C87.7139 48.63 87.9232 48.8239 88.1755 48.9462C88.9026 49.2416 89.6879 49.3728 90.4734 49.3302C91.228 49.3816 91.9824 49.2271 92.6533 48.8837C92.884 48.7322 93.07 48.5238 93.1928 48.2792C93.3155 48.0347 93.3707 47.7627 93.3527 47.4906C93.3759 47.2487 93.3384 47.005 93.2434 46.7807C93.1484 46.5565 92.9988 46.3587 92.8077 46.2046C92.2548 45.9005 91.6228 45.7638 90.9912 45.8117H88.7114C88.3446 45.9632 88.0159 46.1918 87.7486 46.4815C87.4961 46.7986 87.3701 47.1956 87.3944 47.5977ZM90.3644 42.5075C91.0974 42.5712 91.8306 42.3886 92.4444 41.9896C92.6764 41.7557 92.8528 41.4743 92.9612 41.1656C93.0695 40.8568 93.1071 40.5283 93.0711 40.2036V40.0607C93.1022 39.7423 93.0613 39.4211 92.9514 39.12C92.8415 38.819 92.6653 38.5455 92.4353 38.3193C91.8303 37.9068 91.0981 37.7142 90.3644 37.7745C89.6317 37.7137 88.8994 37.896 88.2845 38.2925C88.0509 38.5252 87.8734 38.8065 87.7649 39.1156C87.6565 39.4247 87.6199 39.7537 87.6578 40.0785V40.1857C87.6218 40.5104 87.6594 40.8389 87.7677 41.1477C87.876 41.4565 88.0525 41.7379 88.2845 41.9717C88.8953 42.3784 89.6293 42.5674 90.3644 42.5075Z" fill="#ADB7D0"/>
<path d="M102.753 40.5072C102.75 40.0998 102.711 39.6934 102.635 39.2927C102.584 38.9721 102.459 38.6669 102.272 38.3997C102.092 38.1633 101.846 37.9834 101.564 37.8818C101.209 37.7543 100.833 37.6937 100.455 37.7032C99.982 37.695 99.5119 37.7831 99.0748 37.9621C98.6821 38.1254 98.3291 38.3689 98.0394 38.6765C97.7484 38.9907 97.5286 39.3621 97.3945 39.766C97.2377 40.2171 97.1609 40.6914 97.1675 41.1681V46.2047H96.3682V33.4524H97.1856V37.0245L97.1311 39.2927C97.2945 38.6135 97.7089 38.0184 98.2937 37.6228C98.9463 37.1886 99.7224 36.9697 100.51 36.9977C100.946 36.9492 101.388 37.005 101.798 37.1605C102.207 37.316 102.572 37.5665 102.862 37.8907C103.356 38.6504 103.592 39.5448 103.534 40.4447V46.2404H102.717L102.753 40.5072Z" fill="#ADB7D0"/>
<path d="M104.997 37.0958H106.741L106.904 33.9346H107.54V37.1405H110.637V37.8281H107.54V43.5256C107.535 43.8482 107.556 44.1707 107.603 44.49C107.632 44.7261 107.716 44.9523 107.849 45.1509C107.975 45.3287 108.152 45.4655 108.357 45.5438C108.622 45.6371 108.903 45.6795 109.184 45.6688C109.726 45.6693 110.262 45.5662 110.764 45.3652L110.946 46.0349C110.677 46.1392 110.401 46.2228 110.119 46.285C109.794 46.3518 109.462 46.3847 109.129 46.3832C108.725 46.3942 108.322 46.3337 107.94 46.2046C107.65 46.0933 107.399 45.9046 107.213 45.6599C107.016 45.3967 106.888 45.0901 106.841 44.7669C106.772 44.3716 106.738 43.9712 106.741 43.5702V37.7835H104.997V37.0958Z" fill="#ADB7D0"/>
<path d="M118.548 46.2137H117.831V44.1329C117.723 44.4211 117.583 44.6967 117.413 44.9545C117.037 45.5126 116.49 45.938 115.851 46.169C115.493 46.2978 115.114 46.3613 114.734 46.3565C114.332 46.3598 113.931 46.3087 113.544 46.2047C113.211 46.1067 112.901 45.9426 112.635 45.7225C112.377 45.4921 112.177 45.2043 112.054 44.8831C111.907 44.4857 111.836 44.0647 111.845 43.6418C111.812 43.2379 111.877 42.8321 112.035 42.4579C112.193 42.0837 112.439 41.7518 112.753 41.4896C113.501 41.0011 114.392 40.7688 115.288 40.8288C115.749 40.8307 116.211 40.8635 116.668 40.927C117.078 40.9752 117.484 41.0468 117.885 41.1413V40.1858C117.934 39.5238 117.751 38.8653 117.368 38.3194C117.118 38.0827 116.819 37.9032 116.49 37.7936C116.162 37.684 115.814 37.647 115.469 37.6854C114.534 37.6928 113.609 37.8777 112.744 38.2301L112.563 37.5603C112.992 37.3768 113.44 37.2362 113.898 37.1406C114.432 37.0291 114.977 36.9752 115.524 36.9799C115.963 36.9354 116.407 36.9824 116.826 37.1178C117.245 37.2532 117.631 37.474 117.958 37.7657C118.483 38.4353 118.738 39.2714 118.675 40.1144L118.548 46.2137ZM112.563 43.6418C112.533 43.9256 112.568 44.2124 112.666 44.4812C112.763 44.75 112.92 44.994 113.126 45.1956C113.594 45.5377 114.17 45.7054 114.752 45.6689C115.155 45.6701 115.554 45.588 115.923 45.4278C116.286 45.2727 116.613 45.048 116.886 44.767C117.166 44.4751 117.385 44.1323 117.531 43.7579C117.698 43.3337 117.781 42.8821 117.776 42.4273V41.8111C117.385 41.7169 116.987 41.6483 116.586 41.6057C116.149 41.5599 115.709 41.536 115.269 41.5343C114.546 41.4774 113.824 41.6495 113.208 42.0254C112.98 42.2274 112.804 42.4785 112.692 42.759C112.58 43.0395 112.536 43.3417 112.563 43.6418Z" fill="#ADB7D0"/>
<path d="M128.785 41.9718C128.864 43.1263 128.572 44.2761 127.949 45.2581C127.638 45.6361 127.238 45.9338 126.784 46.1252C126.33 46.3166 125.835 46.396 125.342 46.3565C124.604 46.3839 123.878 46.167 123.28 45.7403C122.745 45.3392 122.361 44.7733 122.19 44.1329L122.145 46.2136H121.409V33.4524H122.209V37.0245L122.145 39.1588H122.19C122.385 38.5082 122.798 37.9416 123.362 37.5513C123.973 37.1474 124.698 36.9441 125.433 36.9709C125.928 36.928 126.426 37.0096 126.881 37.208C127.335 37.4064 127.731 37.715 128.031 38.105C128.615 39.0846 128.89 40.213 128.821 41.3467L128.785 41.9718ZM127.976 41.3734C127.983 40.8549 127.934 40.3371 127.831 39.8285C127.757 39.4192 127.603 39.028 127.377 38.6765C127.172 38.3719 126.886 38.128 126.55 37.9711C126.156 37.7897 125.723 37.704 125.288 37.721C124.837 37.7145 124.39 37.806 123.98 37.9889C123.602 38.1562 123.265 38.3996 122.99 38.7033C122.723 39.0082 122.516 39.3595 122.381 39.7392C122.238 40.1348 122.168 40.5519 122.172 40.9716V42.1325C122.168 42.596 122.238 43.0572 122.381 43.4988C122.512 43.9048 122.718 44.2834 122.99 44.6151C123.26 44.9322 123.594 45.1907 123.971 45.3742C124.375 45.566 124.82 45.6609 125.269 45.651C125.675 45.6811 126.082 45.6044 126.448 45.4286C126.813 45.2528 127.125 44.9843 127.349 44.6508C127.808 43.8327 128.025 42.9048 127.976 41.9718V41.3734Z" fill="#ADB7D0"/>
<path d="M131.537 34.1757C131.629 34.1646 131.723 34.1758 131.81 34.2085C131.897 34.2412 131.975 34.2943 132.036 34.3632C132.121 34.4871 132.165 34.6335 132.163 34.7829C132.166 34.9379 132.121 35.0901 132.036 35.2205C131.973 35.2866 131.895 35.3372 131.808 35.3682C131.721 35.3992 131.628 35.4098 131.537 35.3991C131.445 35.4113 131.351 35.4014 131.264 35.3703C131.177 35.3392 131.099 35.2878 131.037 35.2205C130.945 35.093 130.897 34.9394 130.901 34.7829C130.897 34.6319 130.945 34.484 131.037 34.3632C131.097 34.293 131.175 34.239 131.262 34.2062C131.35 34.1735 131.444 34.1629 131.537 34.1757ZM131.945 46.2135H131.128V37.0958H131.945V46.2135Z" fill="#ADB7D0"/>
<path d="M135.615 46.2136H134.815V33.4524H135.615V46.2136Z" fill="#ADB7D0"/>
<path d="M138.875 34.1758C138.968 34.1639 139.062 34.1748 139.149 34.2076C139.237 34.2403 139.314 34.2938 139.375 34.3633C139.467 34.4841 139.515 34.6321 139.511 34.7831C139.515 34.9396 139.467 35.0931 139.375 35.2206C139.312 35.2873 139.234 35.3383 139.147 35.3694C139.06 35.4004 138.967 35.4107 138.875 35.3992C138.784 35.4099 138.691 35.3994 138.604 35.3683C138.517 35.3373 138.439 35.2867 138.376 35.2206C138.291 35.0903 138.246 34.9381 138.249 34.7831C138.247 34.6337 138.291 34.4872 138.376 34.3633C138.437 34.2945 138.515 34.2414 138.602 34.2087C138.689 34.176 138.783 34.1647 138.875 34.1758ZM139.284 46.2137H138.467V37.096H139.284V46.2137Z" fill="#ADB7D0"/>
<path d="M140.974 37.0958H142.717L142.881 33.8899H143.517V37.0958H146.614V37.7834H143.508V43.4809C143.503 43.8035 143.524 44.1261 143.571 44.4453C143.604 44.6804 143.687 44.9059 143.816 45.1062C143.942 45.284 144.12 45.4208 144.325 45.4991C144.59 45.5924 144.871 45.6348 145.152 45.6241C145.693 45.6246 146.23 45.5215 146.732 45.3205L146.914 45.9903C146.645 46.0946 146.369 46.1782 146.087 46.2403C145.762 46.3071 145.43 46.34 145.097 46.3385C144.696 46.3496 144.296 46.2891 143.916 46.1599C143.625 46.0489 143.37 45.8603 143.181 45.6152C142.988 45.35 142.86 45.0443 142.808 44.7222C142.739 44.327 142.706 43.9265 142.708 43.5255V37.7834H140.964L140.974 37.0958Z" fill="#ADB7D0"/>
<path d="M147.259 37.0959H148.113L150.601 43.4989C150.719 43.8114 150.838 44.1418 150.947 44.4812C151.055 44.8205 151.164 45.151 151.264 45.4814C151.337 45.151 151.428 44.8205 151.537 44.4812C151.646 44.1418 151.755 43.8025 151.882 43.4542L154.125 37.0959H154.979L151.21 47.6693C151.001 48.3106 150.661 48.9032 150.211 49.4106C150.004 49.6122 149.756 49.7688 149.484 49.8703C149.212 49.9718 148.921 50.016 148.63 50C148.368 50.0058 148.106 49.9818 147.849 49.9286C147.642 49.8913 147.439 49.8376 147.241 49.7678L147.35 49.0713C147.742 49.2148 148.158 49.2845 148.576 49.2767C148.789 49.2893 149.002 49.2549 149.2 49.1762C149.398 49.0974 149.576 48.9761 149.72 48.8212C150.041 48.4068 150.281 47.9375 150.429 47.4371L150.819 46.3029L147.259 37.0959Z" fill="#ADB7D0"/>
<path d="M158.894 34.0508H157.704V37.0781H157.241V34.0508H156.06V33.631H158.894V34.0508ZM161.128 36.2744L160.765 35.7207C160.647 35.5242 160.547 35.3367 160.447 35.1581L160.175 34.658C160.114 34.548 160.059 34.4347 160.011 34.3187C160.011 34.533 160.011 34.7562 160.011 34.9795V37.1049H159.557V33.631H160.038L161.283 35.7207L162.482 33.6042H162.963V37.0513H162.509V34.9527C162.509 34.7294 162.509 34.5062 162.509 34.2919C162.445 34.4169 162.363 34.5776 162.245 34.792L161.873 35.4796L161.428 36.2744H161.128Z" fill="#ADB7D0"/>
</g>
<defs>
<clipPath id="clip0_72_234">
<rect width="162.963" height="50" fill="white"/>
</clipPath>
</defs>
</svg>
