<svg width="176" height="50" viewBox="0 0 176 50" fill="none" xmlns="http://www.w3.org/2000/svg">
<g opacity="0.2" clip-path="url(#clip0_72_231)">
<path fill-rule="evenodd" clip-rule="evenodd" d="M68.7191 0.4H80.5843V40.8H94.9213V49.6H68.7191V0.4ZM169.573 4.4H171.056C171.551 4.4 171.551 4.4 171.551 4.4C172.045 4.4 172.045 4.4 172.045 4C172.045 4 172.045 4 172.045 3.6V3.2C171.551 2.8 171.551 2.8 171.056 2.8H169.573V4.4ZM7.91011 20.4H34.1124L31.1461 24.4H7.91011V20.4ZM8.40449 40.8V43.2H10.8764V43.6H7.91011V40.8H8.40449ZM11.3708 40.8V43.6H10.8764V40.8H11.3708ZM13.8427 42H15.8202C15.8202 42 15.8202 42 15.8202 42.4C15.8202 42.8 15.8202 42.8 15.8202 43.2C15.8202 43.2 15.3258 43.2 14.8315 43.6C14.8315 43.6 14.8315 43.6 14.3371 43.6C14.3371 43.6 14.3371 43.6 13.8427 43.6C13.3483 43.6 12.8539 43.2 12.3596 43.2C12.3596 43.2 11.8652 42.8 11.8652 42.4C11.8652 42 11.8652 42 11.8652 42V41.6C11.8652 41.2 12.3596 41.2 12.3596 40.8C12.8539 40.8 12.8539 40.8 13.8427 40.8H14.3371C14.8315 40.8 14.8315 40.8 14.8315 40.8C15.3258 40.8 15.3258 40.8 15.8202 40.8V41.2V41.6H15.3258C15.3258 41.2 15.3258 41.2 15.3258 41.2L14.8315 40.8C14.3371 40.8 14.3371 40.8 14.3371 40.8C13.8427 40.8 13.8427 40.8 13.8427 40.8C13.3483 40.8 12.8539 40.8 12.8539 41.2C12.8539 41.2 12.8539 41.2 12.8539 41.6V42V42.4V42.8C12.8539 43.2 12.8539 43.2 13.3483 43.2C13.3483 43.2 13.3483 43.2 13.8427 43.2H14.3371C14.8315 43.2 14.8315 43.2 15.3258 43.2C15.3258 42.8 15.3258 42.8 15.3258 42.4H13.8427V42ZM20.2697 40.8V43.6H19.2809V42H16.809V43.6H16.3146V40.8H16.809V42H19.2809V40.8H20.2697ZM22.2472 40.8V43.6H21.7528V40.8H20.2697H23.7303H22.2472ZM26.6966 40.8V42H28.6742H26.6966V43.6H26.2022V40.8H28.6742H26.6966ZM31.6404 42.8H29.6629L29.1685 43.6H28.6742L30.1573 40.8H31.1461L32.6292 43.6H32.1348L31.6404 42.8ZM31.6404 42.4L30.6517 40.8L29.6629 42.4H31.6404ZM36.0899 42.4H36.5843C36.5843 42.4 36.5843 42.4 36.5843 42.8C36.5843 42.8 36.5843 43.2 36.0899 43.2C36.0899 43.2 36.0899 43.2 35.5955 43.6H35.1011C35.1011 43.6 35.1011 43.6 34.6067 43.6H34.1124C33.618 43.6 33.1236 43.2 33.1236 43.2C33.1236 42.8 32.6292 42.4 32.6292 42.4C32.6292 42.4 32.6292 42.4 32.6292 42V41.6C32.6292 41.2 33.1236 41.2 33.1236 41.2C33.1236 40.8 33.618 40.8 34.1124 40.8H34.6067C34.6067 40.8 34.6067 40.8 35.1011 40.8C35.5955 40.8 36.0899 40.8 36.0899 40.8C36.0899 40.8 36.5843 41.2 36.5843 41.6H36.0899C36.0899 41.2 36.0899 41.2 35.5955 41.2C35.5955 41.2 35.5955 40.8 35.1011 40.8H34.6067H34.1124C33.618 40.8 33.618 41.2 33.618 41.2V41.6V42V42.4C33.618 42.8 33.618 42.8 33.618 42.8C33.618 43.2 33.618 43.2 33.618 43.2C34.1124 43.2 34.1124 43.2 34.1124 43.2C34.6067 43.2 34.6067 43.2 34.6067 43.2C34.6067 43.2 34.6067 43.2 35.1011 43.2C35.1011 43.2 35.1011 43.2 35.5955 43.2C36.0899 43.2 36.0899 42.8 36.0899 42.8V42.4ZM39.0562 40.8V43.6H38.0674V40.8H36.5843H40.0449H39.0562ZM40.5393 42C40.5393 41.6 40.5393 41.2 40.5393 41.2C41.0337 40.8 41.0337 40.8 42.0225 40.8C43.0112 40.8 43.5056 40.8 43.5056 40.8C44 40.8 44 41.2 44 41.6V42C44 42.4 44 42.4 44 42.4C44 42.8 44 43.2 43.5056 43.2C43.5056 43.2 43.0112 43.6 42.5169 43.6C42.5169 43.6 42.5169 43.6 42.0225 43.6C41.5281 43.6 41.0337 43.2 41.0337 43.2C40.5393 43.2 40.5393 42.8 40.5393 42.8C40.5393 42.4 40.5393 42.4 40.5393 42.4V42ZM41.0337 42V42.4C41.0337 42.8 41.0337 42.8 41.0337 43.2C41.5281 43.2 41.5281 43.2 42.0225 43.2C42.5169 43.2 43.0112 43.2 43.0112 43.2C43.5056 43.2 43.5056 42.8 43.5056 42.4C43.5056 42 43.5056 42 43.5056 42C43.5056 41.6 43.5056 41.6 43.5056 41.6C43.5056 41.2 43.5056 41.2 43.5056 41.2C43.0112 40.8 42.5169 40.8 42.0225 40.8C41.5281 40.8 41.5281 40.8 41.0337 41.2C41.0337 41.2 41.0337 41.2 41.0337 41.6V42ZM44.4944 43.6V40.8H46.9663C47.4607 40.8 47.4607 40.8 47.9551 40.8C47.9551 40.8 47.9551 41.2 47.9551 41.6V42C47.9551 42 47.4607 42 47.4607 42.4H47.9551C47.9551 42.4 47.9551 42.4 47.9551 42.8V43.6H47.4607V42.8V42.4C46.9663 42.4 46.9663 42.4 46.4719 42.4H44.9888V43.6H44.4944ZM44.9888 42H46.4719C46.9663 42 46.9663 42 47.4607 42V41.6C47.4607 41.2 47.4607 41.2 47.4607 41.2L46.9663 40.8H44.9888V42ZM52.4045 40.8L50.427 42.4V43.6H49.9326V42.4L48.4494 40.8H48.9438L50.427 42L51.4157 40.8H52.4045ZM15.8202 9.2H41.5281L39.0562 13.2H12.8539L15.8202 9.2ZM36.5843 20.4H52.4045V24.4H33.618L36.5843 20.4ZM34.1124 26H50.9213L48.4494 30H38.5618L34.1124 26ZM8.89888 26H31.6404L35.5955 30H11.8652L8.89888 26ZM12.8539 31.6H46.9663L44.4944 35.6H15.8202L12.8539 31.6ZM40.5393 14.8H48.4494L50.9213 18.8H37.573L40.5393 14.8ZM44.4944 9.2L46.9663 13.2H41.5281L44.4944 9.2ZM11.8652 14.8H38.0674L35.1011 18.8H8.89888L11.8652 14.8ZM0 49.6V5.6C0 2.8 2.47191 0.4 5.93258 0.4H59.8202V44.8C59.8202 47.6 57.3483 49.6 53.8876 49.6H0ZM169.079 7.2V2.4H171.056C171.551 2.4 172.045 2.4 172.045 2.4C172.539 2.8 172.539 2.8 172.539 2.8C173.034 3.2 173.034 3.2 173.034 3.6C173.034 4 172.539 4.4 172.539 4.4C172.539 4.8 172.045 4.8 171.551 4.8C171.551 5.2 172.045 5.2 172.045 5.2C172.045 5.2 172.045 5.6 172.539 5.6L173.034 7.2H172.539L172.045 6C171.551 5.6 171.551 5.6 171.056 5.2C170.562 5.2 170.562 4.8 170.562 4.8H169.573V7.2H169.079ZM171.056 1.2C173.528 1.2 175.506 2.8 175.506 4.8C175.506 6.8 173.528 8.4 171.056 8.4C168.584 8.4 166.607 6.8 166.607 4.8C166.607 2.8 168.584 1.2 171.056 1.2ZM171.056 0.4H171.551L172.045 0.8H172.539H173.034L173.528 1.2H174.022L174.517 1.6V2H175.011L175.506 2.4V2.8L176 3.2V3.6V4V4.4V4.8V5.2V5.6V6V6.4L175.506 6.8V7.2L175.011 7.6L174.517 8L174.022 8.4H173.528L173.034 8.8H172.539L172.045 9.2H171.551H171.056H170.562H170.067L169.573 8.8H169.079L168.584 8.4H168.09L167.596 8H167.101L166.607 7.6V7.2L166.112 6.8V6.4V6L165.618 5.6V5.2V4.8V4.4V4L166.112 3.6V3.2V2.8L166.607 2.4V2H167.101L167.596 1.6L168.09 1.2H168.584L169.079 0.8H169.573H170.067L170.562 0.4H171.056ZM152.764 15.2H164.135V10C164.135 4.4 157.213 0 148.809 0C141.393 0 133.483 2.8 132.989 10V39.6C132.989 46.4 140.899 50 148.315 50C156.225 50 164.135 46.4 164.135 39.6V24H149.798V33.2H152.764V39.2C152.764 40.4 150.787 41.6 148.809 42C146.831 42 145.348 40.4 144.854 38.8V12C144.854 9.6 146.831 8.4 148.809 8.4C150.787 8.4 152.764 9.2 152.764 12V15.2ZM97.3933 0.4H109.258V36.8C109.258 40 111.236 40.8 113.213 40.8C114.697 40.8 116.674 40 116.674 36.8V0.4H128.539V38.8C128.539 45.2 120.629 50 113.213 50C105.303 50 97.3933 45.2 97.3933 38.8V0.4Z" fill="#ADB7D0"/>
</g>
<defs>
<clipPath id="clip0_72_231">
<rect width="176" height="50" fill="white"/>
</clipPath>
</defs>
</svg>
