<svg width="60" height="60" viewBox="0 0 60 60" fill="none" xmlns="http://www.w3.org/2000/svg">
<g clip-path="url(#clip0_72_391)">
<path d="M59 58H55.0001V25C55.0001 24.4477 54.5523 24 54.0001 24H37V0.999961C37 0.447656 36.5522 0 36 0H6C5.4477 0 5.00004 0.447773 5.00004 0.999961V58H0.999961C0.447656 58 0 58.4477 0 58.9999C0 59.5521 0.447773 60 0.999961 60H6H36H54H59C59.5523 60 60 59.5522 60 59C60 58.4479 59.5522 58 59 58ZM35 25V58H6.99996V2.00004H34.9999V25H35ZM53 58H37V26H52.9999V58H53Z" fill="#D9CB9E"/>
<path d="M12 14H18C18.5523 14 18.9999 13.5523 18.9999 13.0001V7.00008C18.9999 6.44778 18.5522 6.00012 18 6.00012H12C11.4477 6.00012 11 6.4479 11 7.00008V13.0001C11 13.5523 11.4478 14 12 14ZM12.9999 8.00004H16.9999V12H12.9999V8.00004Z" fill="#D9CB9E"/>
<path d="M24 14H30C30.5523 14 30.9999 13.5523 30.9999 13.0001V7.00008C30.9999 6.44778 30.5521 6.00012 30 6.00012H24C23.4477 6.00012 23 6.4479 23 7.00008V13.0001C23 13.5523 23.4477 14 24 14ZM24.9999 8.00004H28.9999V12H24.9999V8.00004Z" fill="#D9CB9E"/>
<path d="M12 26H18C18.5523 26 18.9999 25.5523 18.9999 25.0001V19.0001C18.9999 18.4478 18.5522 18.0001 18 18.0001H12C11.4477 18.0001 11 18.4479 11 19.0001V25.0001C11 25.5523 11.4478 26 12 26ZM12.9999 20H16.9999V24H12.9999V20Z" fill="#D9CB9E"/>
<path d="M24 26H30C30.5523 26 30.9999 25.5523 30.9999 25.0001V19.0001C30.9999 18.4478 30.5521 18.0001 30 18.0001H24C23.4477 18.0001 23 18.4479 23 19.0001V25.0001C23 25.5523 23.4477 26 24 26ZM24.9999 20H28.9999V24H24.9999V20Z" fill="#D9CB9E"/>
<path d="M12 38H18C18.5523 38 18.9999 37.5523 18.9999 37.0001V31.0001C18.9999 30.4478 18.5522 30.0001 18 30.0001H12C11.4477 30.0001 11 30.4479 11 31.0001V37.0001C11 37.5523 11.4478 38 12 38ZM12.9999 32H16.9999V36H12.9999V32Z" fill="#D9CB9E"/>
<path d="M24 38H30C30.5523 38 30.9999 37.5523 30.9999 37.0001V31.0001C30.9999 30.4478 30.5521 30.0001 30 30.0001H24C23.4477 30.0001 23 30.4479 23 31.0001V37.0001C23 37.5523 23.4477 38 24 38ZM24.9999 32H28.9999V36H24.9999V32Z" fill="#D9CB9E"/>
<path d="M12 50H18C18.5523 50 18.9999 49.5523 18.9999 49.0001V43.0001C18.9999 42.4478 18.5522 42.0001 18 42.0001H12C11.4477 42.0001 11 42.4479 11 43.0001V49.0001C11 49.5523 11.4478 50 12 50ZM12.9999 44H16.9999V48H12.9999V44Z" fill="#D9CB9E"/>
<path d="M24 50H30C30.5523 50 30.9999 49.5523 30.9999 49.0001V43.0001C30.9999 42.4478 30.5521 42.0001 30 42.0001H24C23.4477 42.0001 23 42.4479 23 43.0001V49.0001C23 49.5523 23.4477 50 24 50ZM24.9999 44H28.9999V48H24.9999V44Z" fill="#D9CB9E"/>
<path d="M42 38H48C48.5523 38 48.9999 37.5523 48.9999 37.0001V31.0001C48.9999 30.4478 48.5522 30.0001 48 30.0001H42C41.4477 30.0001 41 30.4479 41 31.0001V37.0001C41 37.5523 41.4478 38 42 38ZM42.9999 32H46.9999V36H42.9999V32Z" fill="#D9CB9E"/>
<path d="M42 50H48C48.5523 50 48.9999 49.5523 48.9999 49.0001V43.0001C48.9999 42.4478 48.5522 42.0001 48 42.0001H42C41.4477 42.0001 41 42.4479 41 43.0001V49.0001C41 49.5523 41.4478 50 42 50ZM42.9999 44H46.9999V48H42.9999V44Z" fill="#D9CB9E"/>
</g>
<defs>
<clipPath id="clip0_72_391">
<rect width="60" height="60" fill="white"/>
</clipPath>
</defs>
</svg>
