<svg width="60" height="60" viewBox="0 0 60 60" fill="none" xmlns="http://www.w3.org/2000/svg">
<g clip-path="url(#clip0_72_434)">
<path d="M7.63318 3.66852C6.09967 3.66852 4.85181 4.91638 4.85181 6.44989C4.85181 7.9834 6.09967 9.2308 7.63318 9.2308C9.16669 9.2308 10.4141 7.98294 10.4141 6.44943C10.4141 4.91592 9.16669 3.66852 7.63318 3.66852ZM7.63318 7.4556C7.07837 7.4556 6.62701 7.00424 6.62701 6.44943C6.62701 5.89508 7.07837 5.44373 7.63318 5.44373C8.18753 5.44373 8.63889 5.89508 8.63889 6.44943C8.63889 7.00424 8.18753 7.4556 7.63318 7.4556Z" fill="#D9CB9E"/>
<path d="M15.0887 3.66852C13.5552 3.66852 12.3074 4.91638 12.3074 6.44989C12.3074 7.9834 13.5552 9.2308 15.0887 9.2308C16.6223 9.2308 17.8697 7.9834 17.8697 6.44989C17.8697 4.91638 16.6223 3.66852 15.0887 3.66852ZM15.0887 7.4556C14.5339 7.4556 14.0826 7.00424 14.0826 6.44943C14.0826 5.89508 14.5339 5.44373 15.0887 5.44373C15.6431 5.44373 16.0945 5.89508 16.0945 6.44943C16.0945 7.00424 15.6431 7.4556 15.0887 7.4556Z" fill="#D9CB9E"/>
<path d="M22.5443 3.66852C21.0108 3.66852 19.7634 4.91638 19.7634 6.44989C19.7634 7.9834 21.0108 9.2308 22.5443 9.2308C24.0779 9.2308 25.3253 7.9834 25.3253 6.44989C25.3253 4.91638 24.0779 3.66852 22.5443 3.66852ZM22.5443 7.4556C21.9895 7.4556 21.5386 7.00424 21.5386 6.44943C21.5386 5.89508 21.9895 5.44373 22.5443 5.44373C23.0992 5.44373 23.5505 5.89508 23.5505 6.44943C23.5505 7.00424 23.0987 7.4556 22.5443 7.4556Z" fill="#D9CB9E"/>
<path d="M56.7458 0H3.25424C1.45981 0 0 1.45981 0 3.25424V40.2415C0 40.7318 0.397339 41.1292 0.887604 41.1292C1.37787 41.1292 1.77521 40.7318 1.77521 40.2415V12.8993H58.2248V18.9313C58.2248 19.4215 58.6221 19.8189 59.1124 19.8189C59.6027 19.8189 60 19.4215 60 18.9313V3.25424C60 1.45981 58.5402 0 56.7458 0V0ZM1.77521 11.1241V3.25424C1.77521 2.43851 2.43896 1.77521 3.25424 1.77521H56.7458C57.5615 1.77521 58.2248 2.43896 58.2248 3.25424V11.1241H1.77521Z" fill="#D9CB9E"/>
<path d="M59.1124 22.191C58.6221 22.191 58.2248 22.5888 58.2248 23.0786V56.7457C58.2248 57.5615 57.561 58.2248 56.7458 58.2248H3.25424C2.43851 58.2248 1.77521 57.561 1.77521 56.7457V44.3824C1.77521 43.8922 1.37787 43.4948 0.887604 43.4948C0.397339 43.4948 0 43.8922 0 44.3824V56.7457C0 58.5402 1.45981 60 3.25424 60H56.7458C58.5402 60 60 58.5402 60 56.7457V23.0786C60 22.5888 59.6027 22.191 59.1124 22.191Z" fill="#D9CB9E"/>
<path d="M10.2727 25.112C9.92567 24.7655 9.36399 24.7655 9.01746 25.112L5.46705 28.6624C5.12052 29.009 5.12052 29.5711 5.46705 29.9176L9.01746 33.468C9.1905 33.6411 9.41801 33.7276 9.64506 33.7276C9.87211 33.7276 10.0992 33.6411 10.2727 33.468C10.6192 33.121 10.6192 32.5594 10.2727 32.2128L7.34983 29.29L10.2727 26.3672C10.6192 26.0207 10.6192 25.4585 10.2727 25.112Z" fill="#D9CB9E"/>
<path d="M21.7159 24.852C21.226 24.852 20.8282 25.2493 20.8282 25.7396V32.8404C20.8282 33.3307 21.226 33.728 21.7159 33.728C22.2061 33.728 22.6035 33.3307 22.6035 32.8404V25.7396C22.6035 25.2493 22.2061 24.852 21.7159 24.852Z" fill="#D9CB9E"/>
<path d="M25.3844 24.852C24.8946 24.852 24.4968 25.2493 24.4968 25.7396V32.8404C24.4968 33.3307 24.8946 33.728 25.3844 33.728C25.8747 33.728 26.272 33.3307 26.272 32.8404V25.7396C26.272 25.2493 25.8752 24.852 25.3844 24.852Z" fill="#D9CB9E"/>
<path d="M45.8578 33.728C46.3481 33.728 46.7454 33.3307 46.7454 32.8404V25.7396C46.7454 25.2493 46.3481 24.852 45.8578 24.852C45.368 24.852 44.9702 25.2493 44.9702 25.7396V32.8404C44.9702 33.3307 45.3676 33.728 45.8578 33.728Z" fill="#D9CB9E"/>
<path d="M16.864 24.852H14.4969C13.3553 24.852 12.426 25.7812 12.426 26.9229V31.6566C12.426 32.7988 13.3553 33.728 14.4969 33.728H16.864C18.0057 33.728 18.935 32.7988 18.935 31.6566V26.9229C18.935 25.7812 18.0057 24.852 16.864 24.852ZM17.1598 31.6566C17.1598 31.8201 17.027 31.9528 16.864 31.9528H14.4969C14.334 31.9528 14.2012 31.8201 14.2012 31.6566V26.9229C14.2012 26.7599 14.334 26.6272 14.4969 26.6272H16.864C17.027 26.6272 17.1598 26.7599 17.1598 26.9229V31.6566Z" fill="#D9CB9E"/>
<path d="M32.6038 24.852H30.2367C29.0946 24.852 28.1658 25.7812 28.1658 26.9229V31.6566C28.1658 32.7988 29.0946 33.728 30.2367 33.728H32.6038C33.7455 33.728 34.6747 32.7988 34.6747 31.6566V26.9229C34.6747 25.7812 33.7455 24.852 32.6038 24.852ZM32.8995 31.6566C32.8995 31.8201 32.7668 31.9528 32.6038 31.9528H30.2367C30.0737 31.9528 29.941 31.8201 29.941 31.6566V26.9229C29.941 26.7599 30.0737 26.6272 30.2367 26.6272H32.6038C32.7668 26.6272 32.8995 26.7599 32.8995 26.9229V31.6566Z" fill="#D9CB9E"/>
<path d="M41.006 24.852H38.6389C37.4973 24.852 36.568 25.7812 36.568 26.9229V31.6566C36.568 32.7988 37.4973 33.728 38.6389 33.728H41.006C42.1477 33.728 43.0769 32.7988 43.0769 31.6566V26.9229C43.0769 25.7812 42.1477 24.852 41.006 24.852ZM41.3017 31.6566C41.3017 31.8201 41.169 31.9528 41.006 31.9528H38.6389C38.476 31.9528 38.3432 31.8201 38.3432 31.6566V26.9229C38.3432 26.7599 38.476 26.6272 38.6389 26.6272H41.006C41.169 26.6272 41.3017 26.7599 41.3017 26.9229V31.6566Z" fill="#D9CB9E"/>
<path d="M49.6449 24.852C49.1547 24.852 48.7573 25.2493 48.7573 25.7396V32.8404C48.7573 33.3307 49.1547 33.728 49.6449 33.728C50.1352 33.728 50.5325 33.3307 50.5325 32.8404V25.7396C50.5325 25.2493 50.1352 24.852 49.6449 24.852Z" fill="#D9CB9E"/>
<path d="M49.3725 44.1188C49.5456 44.2923 49.7731 44.3788 50.0001 44.3788C50.2272 44.3788 50.4542 44.2918 50.6277 44.1188L54.1781 40.5684C54.5247 40.2218 54.5247 39.6597 54.1781 39.3132L50.6277 35.7628C50.2807 35.4162 49.7191 35.4162 49.3725 35.7628C49.0256 36.1097 49.0256 36.6714 49.3725 37.018L52.2954 39.9408L49.3725 42.8636C49.0256 43.2101 49.0256 43.7723 49.3725 44.1188Z" fill="#D9CB9E"/>
<path d="M21.9525 35.5032C21.4623 35.5032 21.0649 35.9006 21.0649 36.3904V43.4912C21.0649 43.9815 21.4623 44.3788 21.9525 44.3788C22.4428 44.3788 22.8401 43.9815 22.8401 43.4912V36.3904C22.8401 35.9006 22.4428 35.5032 21.9525 35.5032Z" fill="#D9CB9E"/>
<path d="M25.6215 35.5032C25.1312 35.5032 24.7339 35.9006 24.7339 36.3904V43.4912C24.7339 43.9815 25.1312 44.3788 25.6215 44.3788C26.1113 44.3788 26.5091 43.9815 26.5091 43.4912V36.3904C26.5091 35.9006 26.1118 35.5032 25.6215 35.5032Z" fill="#D9CB9E"/>
<path d="M44.8522 43.4912C44.8522 43.9814 45.2495 44.3788 45.7398 44.3788C46.23 44.3788 46.6274 43.9814 46.6274 43.4912V36.3904C46.6274 35.9001 46.23 35.5027 45.7398 35.5027C45.2495 35.5027 44.8522 35.9001 44.8522 36.3904V43.4912Z" fill="#D9CB9E"/>
<path d="M17.1006 35.5032H14.7335C13.5919 35.5032 12.6626 36.432 12.6626 37.5742V42.3079C12.6626 43.4496 13.5919 44.3788 14.7335 44.3788H17.1006C18.2427 44.3788 19.1715 43.4496 19.1715 42.3079V37.5742C19.1715 36.432 18.2427 35.5032 17.1006 35.5032ZM17.3963 42.3079C17.3963 42.4709 17.2636 42.6036 17.1006 42.6036H14.7335C14.5706 42.6036 14.4378 42.4709 14.4378 42.3079V37.5742C14.4378 37.4107 14.5706 37.278 14.7335 37.278H17.1006C17.2636 37.278 17.3963 37.4107 17.3963 37.5742V42.3079Z" fill="#D9CB9E"/>
<path d="M32.8404 35.5032H30.4733C29.3316 35.5032 28.4023 36.432 28.4023 37.5742V42.3079C28.4023 43.4496 29.3316 44.3788 30.4733 44.3788H32.8404C33.982 44.3788 34.9113 43.4496 34.9113 42.3079V37.5742C34.9113 36.432 33.982 35.5032 32.8404 35.5032ZM33.1361 42.3079C33.1361 42.4709 33.0033 42.6036 32.8399 42.6036H30.4733C30.3098 42.6036 30.1776 42.4709 30.1776 42.3079V37.5742C30.1776 37.4107 30.3098 37.278 30.4733 37.278H32.8399C33.0033 37.278 33.1361 37.4107 33.1361 37.5742V42.3079Z" fill="#D9CB9E"/>
<path d="M41.2427 35.5032H38.8756C37.7339 35.5032 36.8047 36.432 36.8047 37.5742V42.3079C36.8047 43.4496 37.7339 44.3788 38.8756 44.3788H41.2427C42.3848 44.3788 43.3136 43.4496 43.3136 42.3079V37.5742C43.3136 36.432 42.3844 35.5032 41.2427 35.5032ZM41.5384 42.3079C41.5384 42.4709 41.4057 42.6036 41.2427 42.6036H38.8756C38.7126 42.6036 38.5799 42.4709 38.5799 42.3079V37.5742C38.5799 37.4107 38.7126 37.278 38.8756 37.278H41.2427C41.4057 37.278 41.5384 37.4107 41.5384 37.5742V42.3079Z" fill="#D9CB9E"/>
</g>
<defs>
<clipPath id="clip0_72_434">
<rect width="60" height="60" fill="white"/>
</clipPath>
</defs>
</svg>
