<svg width="96" height="70" viewBox="0 0 96 70" fill="none" xmlns="http://www.w3.org/2000/svg">
<g filter="url(#filter0_f_72_410)">
<ellipse cx="48" cy="54.5" rx="37" ry="4.5" fill="black"/>
</g>
<g clip-path="url(#clip0_72_410)">
<path d="M73.3281 24.625C74.3105 24.625 75.1094 23.8401 75.1094 22.875V14.125C75.1094 13.1599 74.3105 12.375 73.3281 12.375H52.5347C49.9893 6.07237 43.7585 1.875 36.8125 1.875C27.4814 1.875 19.8906 9.33262 19.8906 18.5C19.8906 26.2376 25.3074 32.7389 32.6052 34.5834C32.4475 35.0358 32.3594 35.5117 32.3594 36V53.5C32.3594 54.9473 33.5582 56.125 35.0312 56.125H38.5938C40.0668 56.125 41.2656 54.9473 41.2656 53.5V36C41.2656 35.5144 41.1792 35.041 41.0225 34.5904C43.0228 34.0855 44.9145 33.2263 46.6094 32.0415V38.625C46.6094 39.5901 47.4083 40.375 48.3906 40.375H73.3281C74.3105 40.375 75.1094 39.5901 75.1094 38.625V29.875C75.1094 28.9099 74.3105 28.125 73.3281 28.125H50.6003C51.3876 27.04 52.027 25.8666 52.5276 24.625H73.3281ZM41.2656 24.625H46.5631C44.4532 27.852 40.7695 29.875 36.8125 29.875C30.4285 29.875 25.2344 24.772 25.2344 18.5C25.2344 12.228 30.4285 7.125 36.8125 7.125C40.7695 7.125 44.4532 9.148 46.5631 12.375H41.2656C40.2833 12.375 39.4844 13.1599 39.4844 14.125V22.875C39.4844 23.8401 40.2833 24.625 41.2656 24.625ZM41.2656 22.875V14.125H51.9531V22.875H41.2656ZM73.329 22.875H53.7344V14.125H73.3281L73.329 22.875ZM38.5938 54.375H35.0312C34.5405 54.375 34.1406 53.9821 34.1406 53.5V40.375H39.4844V53.5C39.4844 53.9821 39.0845 54.375 38.5938 54.375ZM39.4844 36V38.625H34.1406V36C34.1406 35.6273 34.2252 35.2668 34.3766 34.9325C35.1746 35.0462 35.9833 35.125 36.8125 35.125C37.6345 35.125 38.4459 35.0498 39.2493 34.9351C39.4007 35.2685 39.4844 35.6281 39.4844 36ZM48.3906 29.875H60.8594V38.625H48.3906V29.875ZM73.3281 38.625H62.6406V29.875H73.3281V38.625ZM48.3345 28.1303C47.3976 28.16 46.645 28.8994 46.6156 29.8207C43.8796 32.1089 40.4177 33.375 36.8125 33.375C28.4638 33.375 21.6719 26.7022 21.6719 18.5C21.6719 10.2978 28.4638 3.625 36.8125 3.625C42.7895 3.625 48.1813 7.09438 50.611 12.375H48.6213C46.3208 8.10763 41.7519 5.375 36.8125 5.375C29.4461 5.375 23.4531 11.2629 23.4531 18.5C23.4531 25.7371 29.4461 31.625 36.8125 31.625C41.7519 31.625 46.3208 28.8924 48.6213 24.625H50.6056C50.024 25.8911 49.2599 27.0627 48.3345 28.1303Z" fill="#D9CB9E"/>
<path d="M69.7656 17.625H71.5469V19.375H69.7656V17.625Z" fill="#D9CB9E"/>
<path d="M66.2031 17.625H67.9844V19.375H66.2031V17.625Z" fill="#D9CB9E"/>
<path d="M62.6406 17.625H64.4219V19.375H62.6406V17.625Z" fill="#D9CB9E"/>
<path d="M59.0781 17.625H60.8594V19.375H59.0781V17.625Z" fill="#D9CB9E"/>
<path d="M55.5156 17.625H57.2969V19.375H55.5156V17.625Z" fill="#D9CB9E"/>
<path d="M49.5422 15.2563L44.8282 19.8877L43.6766 18.7563L42.4172 19.9936L44.8282 22.3622L50.8016 16.4936L49.5422 15.2563Z" fill="#D9CB9E"/>
<path d="M69.7656 43.875H44.8281C43.8458 43.875 43.0469 44.6599 43.0469 45.625V54.375C43.0469 55.3401 43.8458 56.125 44.8281 56.125H69.7656C70.748 56.125 71.5469 55.3401 71.5469 54.375V45.625C71.5469 44.6599 70.748 43.875 69.7656 43.875ZM44.8281 45.625H55.5156V54.375H44.8281V45.625ZM57.2969 54.375V45.625H69.7656L69.7665 54.375H57.2969Z" fill="#D9CB9E"/>
<path d="M66.2031 49.125H67.9844V50.875H66.2031V49.125Z" fill="#D9CB9E"/>
<path d="M62.6406 49.125H64.4219V50.875H62.6406V49.125Z" fill="#D9CB9E"/>
<path d="M59.0781 49.125H60.8594V50.875H59.0781V49.125Z" fill="#D9CB9E"/>
<path d="M50.1719 33.375H51.9531V35.125H50.1719V33.375Z" fill="#D9CB9E"/>
<path d="M53.7344 33.375H55.5156V35.125H53.7344V33.375Z" fill="#D9CB9E"/>
<path d="M57.2969 33.375H59.0781V35.125H57.2969V33.375Z" fill="#D9CB9E"/>
<path d="M53.1047 46.7563L48.3907 51.3877L47.2391 50.2563L45.9797 51.4936L48.3907 53.8622L54.3641 47.9936L53.1047 46.7563Z" fill="#D9CB9E"/>
<path d="M64.6829 36.2563L65.9422 37.4936L67.9844 35.4872L70.0266 37.4936L71.286 36.2563L69.2438 34.25L71.286 32.2436L70.0266 31.0063L67.9844 33.0127L65.9422 31.0063L64.6829 32.2436L66.7251 34.25L64.6829 36.2563Z" fill="#D9CB9E"/>
</g>
<defs>
<filter id="filter0_f_72_410" x="0" y="39" width="96" height="31" filterUnits="userSpaceOnUse" color-interpolation-filters="sRGB">
<feFlood flood-opacity="0" result="BackgroundImageFix"/>
<feBlend mode="normal" in="SourceGraphic" in2="BackgroundImageFix" result="shape"/>
<feGaussianBlur stdDeviation="5.5" result="effect1_foregroundBlur_72_410"/>
</filter>
<clipPath id="clip0_72_410">
<rect width="57" height="56" fill="white" transform="translate(19 1)"/>
</clipPath>
</defs>
</svg>
