<svg width="96" height="70" viewBox="0 0 96 70" fill="none" xmlns="http://www.w3.org/2000/svg">
<g filter="url(#filter0_f_72_470)">
<ellipse cx="48" cy="54.5" rx="37" ry="4.5" fill="black"/>
</g>
<path d="M79.7676 26.9658C79.5887 26.7874 79.3464 26.6873 79.0938 26.6875H77.1875V10.4844C77.1875 9.72602 76.8862 8.99873 76.35 8.46249C75.8138 7.92625 75.0865 7.625 74.3281 7.625H23.8125C23.0541 7.625 22.3269 7.92625 21.7906 8.46249C21.2544 8.99873 20.9531 9.72602 20.9531 10.4844V50.4394C20.9531 51.1977 21.2544 51.925 21.7906 52.4613C22.3269 52.9975 23.0541 53.2987 23.8125 53.2987H74.3281C75.0865 53.2987 75.8138 52.9975 76.35 52.4613C76.8862 51.925 77.1875 51.1977 77.1875 50.4394V44.9112L78.6677 45.6518C78.8132 45.7245 78.9749 45.7588 79.1373 45.7514C79.2998 45.7439 79.4577 45.695 79.5959 45.6093C79.7342 45.5236 79.8482 45.404 79.9271 45.2618C80.006 45.1196 80.0473 44.9595 80.0469 44.7969V27.6406C80.047 27.5153 80.0224 27.3912 79.9744 27.2754C79.9265 27.1596 79.8562 27.0544 79.7676 26.9658ZM75.2812 50.4394C75.2812 50.6922 75.1808 50.9346 75.0021 51.1133C74.8233 51.2921 74.5809 51.3925 74.3281 51.3925H23.8125C23.5597 51.3925 23.3173 51.2921 23.1385 51.1133C22.9598 50.9346 22.8594 50.6922 22.8594 50.4394V10.4844C22.8594 10.2316 22.9598 9.98916 23.1385 9.81041C23.3173 9.63167 23.5597 9.53125 23.8125 9.53125H74.3281C74.5809 9.53125 74.8233 9.63167 75.0021 9.81041C75.1808 9.98916 75.2812 10.2316 75.2812 10.4844V26.6875H73.639L73.375 26.5293V21.3386C73.9878 20.6743 74.3281 19.8037 74.3281 18.9C74.3281 17.9963 73.9878 17.1256 73.375 16.4614V12.3906C73.375 12.1378 73.2746 11.8954 73.0958 11.7167C72.9171 11.5379 72.6747 11.4375 72.4219 11.4375H25.7188C25.466 11.4375 25.2235 11.5379 25.0448 11.7167C24.866 11.8954 24.7656 12.1378 24.7656 12.3906V48.6094C24.7656 48.8622 24.866 49.1046 25.0448 49.2833C25.2235 49.4621 25.466 49.5625 25.7188 49.5625H72.4219C72.6747 49.5625 72.9171 49.4621 73.0958 49.2833C73.2746 49.1046 73.375 48.8622 73.375 48.6094V43.0031L75.2812 43.9562V50.4394ZM47.6015 36.8164L46.0136 38.4043C45.9095 38.5092 45.8309 38.6367 45.7839 38.7769L44.095 43.8438H41.3958C40.9415 43.8443 40.5001 43.6926 40.1421 43.4129C39.7841 43.1332 39.5302 42.7416 39.4209 42.3006C39.272 41.7068 38.9449 41.1728 38.4835 40.7704C38.0221 40.368 37.4486 40.1165 36.84 40.0498C36.2315 39.983 35.6171 40.1042 35.0794 40.397C34.5418 40.6899 34.1067 41.1403 33.8327 41.6878L33.176 43.0002C33.0567 43.2395 32.8765 43.4432 32.6536 43.5909C32.4307 43.7386 32.1729 43.825 31.906 43.8416C31.6392 43.8582 31.3726 43.8044 31.1331 43.6855C30.8937 43.5666 30.6896 43.3868 30.5416 43.1642L29.3711 41.4085L27.7851 42.4665L28.9594 44.225C29.2927 44.7255 29.7516 45.1295 30.2903 45.3968C30.8289 45.664 31.4283 45.785 32.0284 45.7477C32.6286 45.7103 33.2083 45.5159 33.7097 45.1839C34.211 44.852 34.6163 44.3941 34.885 43.8561L35.5417 42.5446C35.6413 42.3452 35.7997 42.181 35.9955 42.0743C36.1913 41.9676 36.4151 41.9234 36.6368 41.9477C36.8584 41.972 37.0673 42.0636 37.2354 42.2102C37.4034 42.3568 37.5225 42.5513 37.5766 42.7677C37.7891 43.6197 38.2805 44.3761 38.9726 44.9165C39.6647 45.457 40.5177 45.7504 41.3958 45.75H44.7812C44.8836 45.7498 44.9852 45.7334 45.0824 45.7014L50.8012 43.7951C50.9416 43.7482 51.0692 43.6693 51.1739 43.5645L55.2656 39.4727V41.4609C55.2647 42.1241 55.4617 42.7724 55.8315 43.3228C56.2012 43.8733 56.7268 44.3009 57.341 44.5509C57.9552 44.8009 58.6301 44.8619 59.2791 44.726C59.9282 44.5902 60.5219 44.2638 60.9844 43.7885C61.4468 44.2638 62.0406 44.5902 62.6896 44.726C63.3387 44.8619 64.0135 44.8009 64.6277 44.5509C65.2419 44.3009 65.7675 43.8733 66.1373 43.3228C66.507 42.7724 66.704 42.1241 66.7031 41.4609V40.2562C67.0965 41.0497 67.7044 41.7171 68.4577 42.1827C69.2111 42.6483 70.0799 42.8936 70.9655 42.8906H71.4688V47.6562H26.6719V13.3438H71.4688V15.3453C70.8703 15.2078 70.2467 15.2254 69.6571 15.3966C69.0674 15.5677 68.5312 15.8867 68.0995 16.3232L61.48 22.9379L51.9364 24.5287C51.268 24.6383 50.6604 24.9823 50.2226 25.4991C49.7847 26.0158 49.5452 26.6716 49.5469 27.349V30.5H49.0703C48.3172 30.4975 47.5855 30.7507 46.9949 31.2181C46.4044 31.6855 45.9899 32.3394 45.8193 33.073C45.6488 33.8066 45.7322 34.5763 46.0559 35.2563C46.3797 35.9363 46.9246 36.4863 47.6015 36.8164ZM61.9375 37.1719H64.7969V41.4609C64.7969 41.8401 64.6462 42.2038 64.3781 42.4719C64.11 42.74 63.7464 42.8906 63.3672 42.8906C62.988 42.8906 62.6244 42.74 62.3562 42.4719C62.0881 42.2038 61.9375 41.8401 61.9375 41.4609V37.1719ZM57.1719 37.5665L57.5665 37.1719H60.0312V41.4609C60.0312 41.8401 59.8806 42.2038 59.6125 42.4719C59.3444 42.74 58.9807 42.8906 58.6016 42.8906C58.2224 42.8906 57.8587 42.74 57.5906 42.4719C57.3225 42.2038 57.1719 41.8401 57.1719 41.4609V37.5665ZM49.9415 37.1719H54.871L49.9853 42.0576L46.2881 43.29L47.5205 39.5928L49.9415 37.1719ZM51.4531 27.349C51.4532 27.1235 51.5332 26.9053 51.6789 26.7333C51.8246 26.5612 52.0266 26.4464 52.249 26.4092L59.161 25.2578L53.9189 30.5H51.4531V27.349ZM69.4472 17.6662C69.6911 17.4228 70.0017 17.2571 70.3397 17.1901C70.6777 17.1231 71.028 17.1578 71.3463 17.2897C71.6646 17.4217 71.9366 17.6451 72.1281 17.9316C72.3195 18.2181 72.4218 18.5549 72.4219 18.8995C72.4224 19.1284 72.3777 19.3552 72.2902 19.5667C72.2026 19.7782 72.0741 19.9703 71.912 20.1319L61.5429 30.5H56.6133L69.4472 17.6662ZM71.4688 23.2705V25.3855L70.1468 24.5906L71.4688 23.2705ZM78.1406 43.2538L73.801 41.0845C73.6687 41.0185 73.5229 40.9842 73.375 40.9844H70.9655C70.4342 40.9862 69.9129 40.8392 69.4609 40.5598C69.009 40.2805 68.6443 39.8801 68.4083 39.4041L66.6078 35.7927C66.5283 35.6335 66.4058 35.4998 66.2542 35.4067C66.1026 35.3135 65.9279 35.2647 65.75 35.2656H49.0703C48.6911 35.2656 48.3275 35.115 48.0594 34.8469C47.7913 34.5788 47.6406 34.2151 47.6406 33.8359C47.6406 33.4568 47.7913 33.0931 48.0594 32.825C48.3275 32.5569 48.6911 32.4062 49.0703 32.4062H61.9375C62.1903 32.4062 62.4327 32.3057 62.6114 32.127L68.7571 25.9812L72.8841 28.4594C73.0326 28.5478 73.2022 28.5943 73.375 28.5938H78.1406V43.2538Z" fill="#D9CB9E"/>
<path d="M52.4062 22.875C52.659 22.875 52.9015 22.7746 53.0802 22.5958C53.259 22.4171 53.3594 22.1747 53.3594 21.9219V16.2031C53.3594 15.9503 53.259 15.7079 53.0802 15.5292C52.9015 15.3504 52.659 15.25 52.4062 15.25H29.5312C29.2785 15.25 29.036 15.3504 28.8573 15.5292C28.6785 15.7079 28.5781 15.9503 28.5781 16.2031V21.9219C28.5781 22.1747 28.6785 22.4171 28.8573 22.5958C29.036 22.7746 29.2785 22.875 29.5312 22.875H52.4062ZM30.4844 17.1562H51.4531V20.9688H30.4844V17.1562Z" fill="#D9CB9E"/>
<path d="M64.7969 15.25H55.2656V17.1562H64.7969V15.25Z" fill="#D9CB9E"/>
<path d="M60.9844 19.0625H55.2656V20.9688H60.9844V19.0625Z" fill="#D9CB9E"/>
<path d="M46.6875 24.7812H32.3906V26.6875H46.6875V24.7812Z" fill="#D9CB9E"/>
<path d="M46.6875 28.5938H29.5312V30.5H46.6875V28.5938Z" fill="#D9CB9E"/>
<defs>
<filter id="filter0_f_72_470" x="0" y="39" width="96" height="31" filterUnits="userSpaceOnUse" color-interpolation-filters="sRGB">
<feFlood flood-opacity="0" result="BackgroundImageFix"/>
<feBlend mode="normal" in="SourceGraphic" in2="BackgroundImageFix" result="shape"/>
<feGaussianBlur stdDeviation="5.5" result="effect1_foregroundBlur_72_470"/>
</filter>
</defs>
</svg>
