<svg width="96" height="70" viewBox="0 0 96 70" fill="none" xmlns="http://www.w3.org/2000/svg">
<g filter="url(#filter0_f_72_341)">
<ellipse cx="48" cy="54.5" rx="37" ry="4.5" fill="black"/>
</g>
<g clip-path="url(#clip0_72_341)">
<path d="M30.4375 48.0938H38.875V49.7812H30.4375V48.0938Z" fill="#D9CB9E"/>
<path d="M31.2812 16.0312H38.0312V17.7188H31.2812V16.0312Z" fill="#D9CB9E"/>
<path d="M39.2665 32.9062C38.2439 32.9062 37.2828 33.3045 36.5606 34.0267L36.0105 34.5769C34.4149 34.4191 33.1426 33.1476 32.9856 31.5512L33.5357 31.0011C34.258 30.2788 34.6562 29.3169 34.6562 28.2952C34.6562 26.1849 32.9392 24.4688 30.829 24.4688H30.0452C27.9358 24.4688 26.2188 26.1849 26.2188 28.2952C26.2188 35.4907 32.0727 41.3438 39.2665 41.3438C41.3767 41.3438 43.0938 39.6276 43.0938 37.5173V36.7327C43.0938 34.6224 41.3767 32.9062 39.2665 32.9062ZM41.4062 37.5173C41.4062 38.6961 40.4461 39.6562 39.2665 39.6562C33.0025 39.6562 27.9062 34.56 27.9062 28.2952C27.9062 27.1164 28.8656 26.1562 30.0452 26.1562H30.829C32.0086 26.1562 32.9688 27.1164 32.9688 28.2952C32.9688 28.8664 32.746 29.403 32.3418 29.808L31.2812 30.8694V31.2188C31.2812 34.0107 33.5518 36.2812 36.3438 36.2812H36.6939L37.7545 35.2198C38.1578 34.8165 38.6953 34.5938 39.2665 34.5938C40.4461 34.5938 41.4062 35.5539 41.4062 36.7327V37.5173Z" fill="#D9CB9E"/>
<path d="M38.0312 24.4688H39.7188V26.1562H38.0312V24.4688Z" fill="#D9CB9E"/>
<path d="M34.6562 24.4688H36.3438V26.1562H34.6562V24.4688Z" fill="#D9CB9E"/>
<path d="M50.6875 34.5938C49.2919 34.5938 48.1562 35.7294 48.1562 37.125C48.1562 38.5206 49.2919 39.6562 50.6875 39.6562C52.0831 39.6562 53.2188 38.5206 53.2188 37.125C53.2188 35.7294 52.0831 34.5938 50.6875 34.5938ZM50.6875 37.9688C50.2226 37.9688 49.8438 37.5907 49.8438 37.125C49.8438 36.6593 50.2226 36.2812 50.6875 36.2812C51.1524 36.2812 51.5312 36.6593 51.5312 37.125C51.5312 37.5907 51.1524 37.9688 50.6875 37.9688Z" fill="#D9CB9E"/>
<path d="M59.9688 37.125C59.9688 35.7294 58.8331 34.5938 57.4375 34.5938C56.0419 34.5938 54.9062 35.7294 54.9062 37.125C54.9062 38.5206 56.0419 39.6562 57.4375 39.6562C58.8331 39.6562 59.9688 38.5206 59.9688 37.125ZM56.5938 37.125C56.5938 36.6593 56.9726 36.2812 57.4375 36.2812C57.9024 36.2812 58.2812 36.6593 58.2812 37.125C58.2812 37.5907 57.9024 37.9688 57.4375 37.9688C56.9726 37.9688 56.5938 37.5907 56.5938 37.125Z" fill="#D9CB9E"/>
<path d="M64.1875 34.5938C62.7919 34.5938 61.6562 35.7294 61.6562 37.125C61.6562 38.5206 62.7919 39.6562 64.1875 39.6562C65.5831 39.6562 66.7188 38.5206 66.7188 37.125C66.7188 35.7294 65.5831 34.5938 64.1875 34.5938ZM64.1875 37.9688C63.7226 37.9688 63.3438 37.5907 63.3438 37.125C63.3438 36.6593 63.7226 36.2812 64.1875 36.2812C64.6524 36.2812 65.0312 36.6593 65.0312 37.125C65.0312 37.5907 64.6524 37.9688 64.1875 37.9688Z" fill="#D9CB9E"/>
<path d="M54.9062 41.3438H66.7188V43.0312H54.9062V41.3438Z" fill="#D9CB9E"/>
<path d="M63.3438 44.7188H66.7188V46.4062H63.3438V44.7188Z" fill="#D9CB9E"/>
<path d="M54.9062 44.7188H61.6562V46.4062H54.9062V44.7188Z" fill="#D9CB9E"/>
<path d="M54.9062 48.0938H66.7188V49.7812H54.9062V48.0938Z" fill="#D9CB9E"/>
<path d="M69.6094 0.84375H45.2656C42.207 0.84375 39.7188 3.33197 39.7188 6.39056C39.7188 6.67322 39.7407 6.95756 39.7837 7.23347L40.6173 12.6562H27.0625C24.7363 12.6562 22.8438 14.5488 22.8438 16.875V48.9375C22.8438 51.2637 24.7363 53.1562 27.0625 53.1562H42.25C44.5762 53.1562 46.4688 51.2637 46.4688 48.9375V29.3051C46.9497 29.4393 47.4483 29.5312 47.9723 29.5312H49.8438V30.6973C49.8438 31.9148 50.8343 32.9062 52.0527 32.9062C52.3936 32.9062 52.7353 32.8252 53.0407 32.6734L59.3241 29.5312H66.9027C69.6601 29.5312 71.9652 27.5527 72.3845 24.8282L75.0913 7.23431C75.1343 6.95756 75.1562 6.67322 75.1562 6.39056C75.1562 3.33197 72.668 0.84375 69.6094 0.84375ZM24.5312 16.875C24.5312 15.4794 25.6669 14.3438 27.0625 14.3438H40.8772L41.656 19.4062H24.5312V16.875ZM44.7812 48.9375C44.7812 50.3331 43.6456 51.4688 42.25 51.4688H27.0625C25.6669 51.4688 24.5312 50.3331 24.5312 48.9375V46.4062H44.7812V48.9375ZM44.7812 44.7188H24.5312V21.0938H41.9159L42.4348 24.4688H41.4062V26.1562H42.887C43.2937 27.1173 43.951 27.9222 44.7812 28.5069V44.7188ZM58.9259 27.8438L52.2856 31.1639C51.9565 31.3301 51.5312 31.0643 51.5312 30.6973V27.8438H49.8539C49.9509 24.8898 51.8451 22.2682 54.5958 21.2414L57.4375 25.0315L60.2793 21.2414C63.0299 22.2682 64.9241 24.8898 65.0211 27.8438H58.9259ZM51.8586 10.9688L51.7118 10.5292C51.592 10.1706 51.5312 9.79678 51.5312 9.41794C51.5312 7.48153 53.1065 5.90625 55.0429 5.90625H59.8321C61.7685 5.90625 63.3438 7.48153 63.3438 9.41794C63.3438 9.79678 63.283 10.1706 63.1632 10.5283L63.0164 10.9688H62.6114H61.6562H60.2936C57.8805 10.9688 55.7416 9.52087 54.8455 7.28072L53.2795 7.90678C53.6322 8.78766 54.1477 9.55884 54.7628 10.2262C54.2684 10.4996 53.7587 10.7435 53.2196 10.9232L53.0812 10.9688H51.8586ZM52.6847 14.3438H50.6875V12.6562H52.4737L52.6847 14.3438ZM64.1875 12.6562V13.5V14.3438H62.1903L62.4013 12.6562H64.1875ZM56.1179 11.3999C57.3261 12.2015 58.7664 12.6562 60.2944 12.6562H60.7011L60.2531 16.2405C60.1468 17.0834 59.4271 17.7188 58.5783 17.7188H56.2976C55.4488 17.7188 54.7282 17.0834 54.6228 16.2405L54.1401 12.3787C54.8312 12.1188 55.4943 11.7922 56.1179 11.3999ZM59.0288 20.0973L57.4375 22.2185L55.8462 20.0973L56.0833 19.386C56.155 19.3911 56.2242 19.4062 56.2967 19.4062H58.5774C58.65 19.4062 58.7192 19.3911 58.7909 19.386L59.0288 20.0973ZM73.424 6.97697L70.7173 24.5717C70.4253 26.4676 68.8214 27.8438 66.9027 27.8438H66.7086C66.6091 24.1009 64.163 20.7799 60.6319 19.5742L60.3957 18.8646C61.2124 18.3389 61.798 17.4732 61.9263 16.4497L61.9794 16.0312H64.1875V17.7188C64.1875 18.1845 63.8087 18.5625 63.3438 18.5625H62.5V20.25H63.3438C64.7393 20.25 65.875 19.1143 65.875 17.7188V14.3438V13.5V12.6562C65.875 11.9281 65.4084 11.3113 64.7604 11.0759L64.7646 11.0633C64.9418 10.5317 65.0312 9.97819 65.0312 9.41794C65.0312 6.55172 62.6991 4.21875 59.8321 4.21875H55.0429C52.1759 4.21875 49.8438 6.55172 49.8438 9.41794C49.8438 9.97819 49.9332 10.5317 50.1104 11.0624L50.1146 11.0751C49.4666 11.3113 49 11.9281 49 12.6562V14.3438C49 15.2744 49.7568 16.0312 50.6875 16.0312H52.8956L52.9479 16.4497C53.0762 17.4732 53.6609 18.3389 54.4785 18.8646L54.2422 19.5742C50.7111 20.7799 48.2659 24.1 48.1655 27.8438H47.9715C46.0536 27.8438 44.4488 26.4676 44.1569 24.5708L41.451 6.97612C41.4214 6.78206 41.4062 6.58716 41.4062 6.39056C41.4062 4.26262 43.1376 2.53125 45.2656 2.53125H69.6103C71.7374 2.53125 73.4688 4.26262 73.4688 6.39056C73.4688 6.58716 73.4536 6.78206 73.424 6.97697Z" fill="#D9CB9E"/>
</g>
<defs>
<filter id="filter0_f_72_341" x="0" y="39" width="96" height="31" filterUnits="userSpaceOnUse" color-interpolation-filters="sRGB">
<feFlood flood-opacity="0" result="BackgroundImageFix"/>
<feBlend mode="normal" in="SourceGraphic" in2="BackgroundImageFix" result="shape"/>
<feGaussianBlur stdDeviation="5.5" result="effect1_foregroundBlur_72_341"/>
</filter>
<clipPath id="clip0_72_341">
<rect width="54" height="54" fill="white" transform="translate(22)"/>
</clipPath>
</defs>
</svg>
