<svg width="60" height="60" viewBox="0 0 60 60" fill="none" xmlns="http://www.w3.org/2000/svg">
<path d="M9.5062 28.8072L13.5751 29.9464C13.7976 30.0087 14.0342 30.0038 14.254 29.9321L36.3527 22.7312C38.0474 24.6332 40.3357 25.9333 42.816 26.4356C43.9082 31.2455 46.919 33.2753 49.7794 33.2753C50.4412 33.2753 51.0952 33.1632 51.7059 32.9355C54.7844 31.7874 55.9371 27.5119 54.3301 23.2018C54.2429 22.968 54.1484 22.7456 54.0503 22.5292C56.6065 19.5056 57.5609 15.3199 56.2558 11.3153C54.6789 6.47597 50.2021 3.22449 45.116 3.22449C39.0821 3.22449 34.0274 7.83031 33.4475 13.8177L32.5194 14.1201C32.2994 14.1918 32.1056 14.3271 31.9624 14.5086L29.8297 17.2128L26.5133 16.2842C26.0576 16.1565 25.57 16.3156 25.2772 16.6869L23.1445 19.3911L19.828 18.4625C19.3722 18.3351 18.8848 18.4939 18.5919 18.8654L16.5703 21.4287L14.472 20.3617C14.1948 20.2209 13.8732 20.1959 13.5779 20.2921L11.3494 21.0182C10.9987 21.1326 10.7223 21.4053 10.6033 21.7544L8.71284 27.3008C8.60889 27.6057 8.63503 27.9398 8.78514 28.2248C8.93526 28.5098 9.196 28.7204 9.5062 28.8072ZM50.8869 30.7394C49.9622 31.0843 48.8486 30.9666 47.9075 30.4256C47.0408 29.9272 45.954 28.8757 45.2961 26.6639C47.8141 26.6241 50.247 25.7716 52.2217 24.2683C53.2105 27.1655 52.6231 30.0918 50.8869 30.7394ZM12.6325 23.0653L13.8423 22.671L16.3642 23.9533C16.8623 24.2066 17.4697 24.0732 17.8155 23.6343L19.9482 20.9302L23.2647 21.8587C23.7202 21.9861 24.2078 21.8273 24.5008 21.4558L26.6335 18.7517L29.9499 19.6803C30.4052 19.8077 30.893 19.649 31.186 19.2774L33.5828 16.2384L34.9311 15.7989C35.4032 15.6451 35.7271 15.2103 35.7394 14.7138C35.8655 9.62421 40.0488 5.568 45.1158 5.568C49.1845 5.568 52.7657 8.16933 54.0274 12.0412C54.9896 14.9937 54.4155 18.0544 52.7319 20.412C51.5826 19.0381 50.179 18.2294 48.8609 17.7573C49.7442 16.5764 50.061 14.9991 49.5706 13.4936C48.7597 11.005 46.1044 9.693 43.6613 10.4889C41.2038 11.2898 39.856 13.9407 40.6569 16.3982C41.4133 18.7198 43.799 20.053 46.1518 19.5164C47.7799 19.7094 49.7489 20.3526 51.1177 22.1498C49.4193 23.5648 47.2724 24.3236 45.1123 24.3236C42.219 24.3236 39.4391 22.9528 37.676 20.6564C37.3735 20.2625 36.8556 20.1021 36.3834 20.2558L13.8652 27.5936L11.331 26.8841L12.6325 23.0653ZM45.113 17.2907C44.096 17.2907 43.2008 16.6403 42.8853 15.6723C42.4849 14.4434 43.1588 13.1179 44.3874 12.7176C45.6132 12.318 46.9375 12.9784 47.3422 14.2198C47.7425 15.4485 46.7057 17.2907 45.113 17.2907Z" fill="#D9CB9E"/>
<path d="M57.1974 47.4193C57.0583 45.9092 55.6846 44.7541 54.3997 44.3936C53.3568 44.101 52.6454 44.3672 51.7262 44.4525C51.5021 44.4397 51.4317 44.4666 50.5896 44.6861C40.1407 47.4086 36.2223 47.98 34.7753 47.98C34.4462 47.98 34.3326 47.949 34.3308 47.9485C32.3286 47.3022 29.5313 46.7143 28.596 45.9709C29.2966 45.8789 30.2231 46.0473 30.9147 46.2583C32.0975 46.6193 33.4249 46.8023 34.8601 46.8022C38.4298 46.8021 41.8905 45.6484 43.4716 43.9316C44.2283 43.1097 44.5855 42.1561 44.5044 41.1733C44.4392 40.383 44.0092 39.3557 42.3315 38.9505C39.6505 38.3032 34.358 39.4089 31.2719 36.7088C28.0135 33.8581 24.2489 32.4127 20.0823 32.4127C17.143 32.4127 14.6717 33.1466 13.1658 33.7325C12.7129 32.3507 11.4118 31.3497 9.88049 31.3497H6.24768C4.34139 31.3497 2.79065 32.9005 2.79065 34.8068V50.1583C2.79065 52.0646 4.34139 53.6154 6.24768 53.6154H9.88049C11.4093 53.6154 12.7087 52.6174 13.1636 51.2391L22.2237 55.2021C24.4119 56.2461 27.2008 56.7756 30.513 56.7756C40.585 56.7756 52.8247 51.8887 54.3234 51.1513C56.8676 49.8993 57.2907 48.4307 57.1974 47.4193ZM10.9939 50.1583C10.9939 50.7722 10.4944 51.2716 9.88061 51.2716H6.2478C5.63397 51.2716 5.13452 50.7722 5.13452 50.1583V34.8068C5.13452 34.1929 5.63397 33.6935 6.2478 33.6935H9.88061C10.4944 33.6935 10.9939 34.1929 10.9939 34.8068V49.5234V50.1583ZM53.2886 49.0482C51.8541 49.754 40.1414 54.4318 30.513 54.4318C27.5446 54.4318 25.0903 53.9768 23.2178 53.0796C23.1798 53.0614 23.8651 53.3622 13.3375 48.7569V36.1992C14.4428 35.7051 16.9707 34.7565 20.0821 34.7565C23.6643 34.7565 26.9099 36.0069 29.7284 38.4729C32.4772 40.8777 36.2929 40.9653 39.0791 41.0291C40.1708 41.0541 41.8081 41.0916 42.1686 41.3677C42.1784 41.4876 42.2056 41.8462 41.7472 42.3439C40.619 43.569 37.7224 44.4583 34.8597 44.4584C33.6735 44.4586 32.5458 44.3057 31.5985 44.0166C30.7099 43.7455 29.8168 43.6023 29.0158 43.6023C27.35 43.6023 26.6252 44.2304 26.3104 44.7574C26.0942 45.1194 25.8149 45.8816 26.3739 46.9195C27.3566 48.7439 30.6289 49.2164 33.6105 50.1788C33.9166 50.2776 34.2867 50.3236 34.7751 50.3236C38.3634 50.3236 48.2999 47.6893 51.7732 46.8001C52.5457 46.7422 53.082 46.6034 53.4333 46.6034C53.5489 46.6034 53.6516 46.6177 53.7663 46.6499C54.2314 46.7804 54.8291 47.2602 54.8635 47.634C54.8896 47.9163 54.4927 48.4557 53.2886 49.0482Z" fill="#D9CB9E"/>
</svg>
