<svg width="60" height="60" viewBox="0 0 60 60" fill="none" xmlns="http://www.w3.org/2000/svg">
<g clip-path="url(#clip0_72_459)">
<path d="M29.8954 7.62422C30.5472 7.62422 31.0756 7.09582 31.0756 6.44402V1.1802C31.0756 0.528398 30.5472 0 29.8954 0C29.2436 0 28.7152 0.528398 28.7152 1.1802V6.44402C28.7153 7.09582 29.2437 7.62422 29.8954 7.62422Z" fill="#D9CB9E"/>
<path d="M58.7437 40.5451L56.6588 38.4661C55.9172 37.7253 54.9287 37.3173 53.8754 37.3173C53.2019 37.3173 52.5554 37.4849 51.9825 37.7988L48.0536 33.8747L48.245 33.6835C49.8389 32.0865 49.8383 29.4914 48.2449 27.8997C47.6755 27.3293 46.965 26.9489 46.1905 26.7888C46.2971 26.4207 46.3532 26.0352 46.3532 25.6406C46.3532 24.5443 45.9274 23.5163 45.1565 22.7486C44.587 22.1782 43.8766 21.7978 43.1021 21.6377C43.2088 21.2696 43.2649 20.8842 43.2649 20.4895C43.2649 19.3931 42.839 18.3652 42.0669 17.5964C41.4838 17.014 40.7669 16.6453 40.0142 16.4884C40.4169 15.1 40.0728 13.5381 38.9806 12.444C38.0715 11.5387 36.8379 11.1497 35.649 11.2758L27.8636 9.80212C26.6763 9.57688 25.1935 9.42794 24.2575 10.2816C24.1985 10.3356 24.1383 10.3975 24.079 10.4666C22.6277 9.93759 20.935 10.2526 19.7729 11.4134C19.0019 12.1835 18.5772 13.211 18.5772 14.3067C18.5772 14.7014 18.6331 15.0868 18.7397 15.455C17.966 15.615 17.2564 15.9949 16.6889 16.5635C15.9164 17.3328 15.4904 18.3591 15.4896 19.4536C15.4892 19.8492 15.5454 20.2359 15.6525 20.605C14.8784 20.7647 14.1684 21.1439 13.5991 21.7125C12.8266 22.4841 12.4012 23.5122 12.4012 24.6074C12.4012 25.4462 12.6516 26.2453 13.1157 26.9203C12.5298 27.1189 11.9931 27.4495 11.5436 27.8984C9.94872 29.4914 9.94813 32.0866 11.5447 33.686L11.7354 33.8758L7.80606 37.798C6.34579 37.1104 4.54661 37.368 3.34157 38.5715L1.2554 40.6518C0.513369 41.3929 0.104854 42.3815 0.104736 43.4354C0.104736 44.4894 0.513369 45.4781 1.2554 46.2193L3.85895 48.8197C4.32009 49.2804 5.06739 49.2799 5.52794 48.8188C5.9886 48.3576 5.98813 47.6103 5.527 47.1498L2.92345 44.5494C2.6279 44.2542 2.46513 43.8586 2.46513 43.4355C2.46513 43.0126 2.6279 42.6171 2.92274 42.3226L5.00903 40.2422C5.53028 39.7215 6.32809 39.6439 6.93395 40.0061C6.97661 40.0702 7.02595 40.1312 7.08243 40.1878C7.18356 40.2892 7.29899 40.3668 7.42157 40.4237L19.3856 52.3701C19.4424 52.494 19.5205 52.6106 19.6223 52.7125C19.7215 52.8118 19.8345 52.8886 19.9545 52.945C20.2075 53.2311 20.3474 53.5965 20.3474 53.9863C20.3474 54.4093 20.1846 54.8048 19.889 55.1L17.8049 57.1817C17.189 57.7949 16.1873 57.7947 15.5734 57.1836L12.9698 54.5798C12.5089 54.1189 11.7617 54.1189 11.3008 54.5798C10.8399 55.0407 10.8399 55.7879 11.3008 56.2488L13.9063 58.8545C14.6731 59.6182 15.6802 59.9999 16.6878 59.9999C17.6956 59.9999 18.7039 59.6176 19.4717 58.8532L21.5572 56.7702C22.2992 56.029 22.7079 55.0404 22.7079 53.9863C22.7079 53.234 22.4987 52.5157 22.1097 51.8962L26.5319 47.4794C26.5366 47.4746 26.5413 47.4698 26.5461 47.465C27.0525 46.9415 28.4626 47.0395 29.8263 47.1342C30.7952 47.2016 31.8754 47.2765 32.9308 47.1548L37.7735 51.9917C37.4598 52.5637 37.2923 53.2094 37.2923 53.8818C37.2923 54.9348 37.7009 55.9228 38.443 56.664L40.5286 58.747C41.2701 59.4877 42.2586 59.8958 43.3119 59.8958C44.365 59.8958 45.3535 59.4879 46.0952 58.747L58.7445 46.113C59.4866 45.3719 59.8952 44.3833 59.8952 43.3293C59.8951 42.2755 59.4865 41.2869 58.7437 40.5451ZM27.4242 12.1213L32.5438 13.0903L29.4794 16.1534C29.0054 15.9256 28.3557 15.5007 27.643 14.8189C26.6674 13.8856 25.9695 12.8081 25.906 12.136C25.9059 12.1357 25.9059 12.1353 25.9059 12.135C25.9059 12.1349 25.9058 12.1347 25.9058 12.1346C25.9012 12.0863 25.9 12.0478 25.9006 12.0184C26.055 11.9809 26.4649 11.9393 27.4242 12.1213ZM21.4408 13.0835C22.0387 12.4862 22.9675 12.4173 23.6431 12.8748C24.026 14.48 25.3953 15.9349 26.0114 16.5243C26.4679 16.9612 27.9329 18.271 29.4116 18.631C29.6116 18.9178 29.7205 19.2596 29.7205 19.6203C29.7205 20.085 29.5418 20.5194 29.2161 20.8447C28.8914 21.17 28.4563 21.3491 27.9908 21.3491C27.5252 21.3491 27.0901 21.17 26.7638 20.8432L26.7637 20.8431L26.7631 20.8425L21.4407 15.5297C21.1162 15.2056 20.9375 14.7712 20.9375 14.3067C20.9376 13.842 21.1163 13.4076 21.4408 13.0835ZM18.3569 18.2335C18.6816 17.9083 19.1163 17.7291 19.5811 17.7291C20.0464 17.7291 20.4825 17.9087 20.8093 18.2352L25.0951 22.5124C25.77 23.1883 25.77 24.2883 25.0974 24.9618C24.7709 25.287 24.3343 25.4661 23.868 25.4661C23.4017 25.4661 22.9651 25.287 22.64 24.9633L22.6399 24.9631L19.3885 21.7125C19.3835 21.7074 19.378 21.7027 19.3728 21.6976L18.3556 20.6809C18.0293 20.3549 17.8496 19.9196 17.85 19.4553C17.8504 18.9925 18.0295 18.5595 18.3569 18.2335ZM15.2672 23.3825C15.5921 23.058 16.0277 22.8793 16.4939 22.8793C16.9562 22.8793 17.388 23.0554 17.7116 23.3743L20.9729 26.6341C21.2981 26.958 21.4773 27.392 21.4773 27.856C21.4773 28.32 21.2981 28.7539 20.9716 29.0791C20.6468 29.4035 20.2116 29.5822 19.7463 29.5822C19.2802 29.5822 18.8437 29.403 18.5184 29.0791L17.3361 27.8982C17.3359 27.8979 17.3355 27.8976 17.3353 27.8974L15.2673 25.8318C14.9413 25.5062 14.7617 25.0712 14.7617 24.6071C14.7617 24.1432 14.9413 23.7081 15.2672 23.3825ZM13.2117 29.5684C13.5381 29.2424 13.9742 29.0628 14.4398 29.0628C14.9053 29.0628 15.3413 29.2422 15.6676 29.568L16.8515 30.7506C17.1768 31.0745 17.3559 31.5084 17.3559 31.9725C17.3559 32.4365 17.1767 32.8704 16.8491 33.1968C16.5243 33.522 16.0892 33.7012 15.6238 33.7012C15.1582 33.7012 14.7231 33.5222 14.396 33.1945L14.2477 33.0468C14.2458 33.0449 14.2442 33.0427 14.2424 33.0409C14.2401 33.0388 14.2378 33.0369 14.2356 33.0348L13.2129 32.0161C12.538 31.3398 12.5374 30.2418 13.2117 29.5684ZM37.2625 42.9814C36.8019 42.5202 36.0546 42.5198 35.5936 42.9804L34.5436 44.0291C33.5458 45.0268 31.738 44.9012 29.9897 44.7799C28.0911 44.6479 26.1279 44.5118 24.8574 45.8161L20.5104 50.1579L9.6397 39.3031L13.4867 35.463C14.1226 35.8528 14.8563 36.0617 15.624 36.0617C16.7208 36.0617 17.7492 35.6366 18.5174 34.867C19.2907 34.0968 19.7166 33.069 19.7166 31.9726C19.7166 31.9624 19.7159 31.9523 19.7159 31.9421C19.7261 31.9422 19.7363 31.9428 19.7465 31.9428C20.8418 31.9428 21.8694 31.519 22.6386 30.7507C23.4119 29.9805 23.8379 28.9525 23.8379 27.8563C23.8379 27.8461 23.8372 27.836 23.8372 27.8258C23.8475 27.8258 23.8578 27.8265 23.8682 27.8265C24.9631 27.8265 25.9913 27.4031 26.7657 26.6319C27.5696 25.8267 27.9672 24.7666 27.9596 23.7088C27.9702 23.7089 27.9807 23.7095 27.9913 23.7095C29.088 23.7093 30.1163 23.2843 30.8857 22.5136C31.6566 21.7435 32.0813 20.716 32.0813 19.6203C32.0813 18.854 31.873 18.1215 31.4845 17.4869L34.8563 14.1165C35.1076 13.8663 35.4174 13.7093 35.7422 13.6445C35.7773 13.6407 35.812 13.6351 35.8463 13.6283C36.3674 13.5565 36.9145 13.7172 37.3129 14.114C37.9878 14.7901 37.9878 15.89 37.3154 16.5636L36.2885 17.5863C36.2851 17.5897 36.2815 17.5927 36.2781 17.5961L35.0953 18.7769C34.634 19.2375 34.6336 19.9848 35.0942 20.4459C35.555 20.9072 36.3022 20.9075 36.7632 20.447L37.7942 19.4174C37.7945 19.4171 37.7947 19.4169 37.7949 19.4166L37.9508 19.2614C38.6275 18.5908 39.724 18.5922 40.4 19.2674C40.7253 19.5913 40.9045 20.0252 40.9045 20.4893C40.9045 20.9532 40.7253 21.3872 40.3974 21.7136L39.3647 22.7485C39.3645 22.7486 39.3644 22.7488 39.3643 22.749L38.1816 23.9268C37.7198 24.3868 37.7183 25.1341 38.1782 25.5958C38.6382 26.0577 39.3854 26.0591 39.8472 25.5992L41.0353 24.416C41.36 24.0907 41.7951 23.9116 42.2606 23.9116C42.7262 23.9116 43.1614 24.0907 43.4885 24.4183C43.8138 24.7424 43.9929 25.1763 43.9929 25.6404C43.9929 26.1043 43.8138 26.5383 43.4866 26.864L41.4276 28.9238C40.9668 29.3849 40.967 30.132 41.4279 30.5928C41.6584 30.8232 41.9602 30.9383 42.2622 30.9383C42.5643 30.9383 42.8665 30.823 43.0968 30.5925L44.1059 29.583C44.1117 29.5775 44.1179 29.5727 44.1236 29.567C44.4484 29.2416 44.8835 29.0626 45.3489 29.0626C45.8145 29.0626 46.2497 29.2416 46.5756 29.5681C47.2497 30.2416 47.2491 31.3397 46.5756 32.0144L45.5496 33.0392C45.5492 33.0396 45.5488 33.0399 45.5484 33.0403C45.548 33.0406 45.5477 33.0411 45.5473 33.0415L43.9189 34.6679C43.4578 35.1286 43.4573 35.8759 43.9179 36.337C44.1484 36.5677 44.4507 36.6832 44.7529 36.6832C45.0547 36.6832 45.3566 36.5681 45.587 36.3381L46.3835 35.5425L50.2011 39.3556L39.3314 50.2121L35.4368 46.3222C35.7083 46.1476 35.9681 45.9423 36.212 45.6984L37.2614 44.6503C37.7227 44.1898 37.7232 43.4425 37.2625 42.9814ZM57.0764 44.443L44.427 57.077C44.1311 57.3725 43.735 57.5353 43.3118 57.5353C42.8885 57.5353 42.4924 57.3725 42.1964 57.0768L40.1108 54.9938C39.8152 54.6988 39.6525 54.3038 39.6525 53.8818C39.6525 53.46 39.8152 53.065 40.1108 52.7699L52.7601 40.1359C53.0561 39.8402 53.4521 39.6774 53.8755 39.6774C54.2988 39.6774 54.6949 39.8402 54.9916 40.1366L57.0765 42.2156C57.372 42.5108 57.5348 42.9062 57.5348 43.3292C57.5347 43.7524 57.3719 44.1479 57.0764 44.443Z" fill="#D9CB9E"/>
<path d="M14.2239 6.62929C14.4543 6.85921 14.756 6.97405 15.0576 6.97405C15.36 6.97405 15.6624 6.85851 15.8929 6.62753C16.3534 6.16616 16.3527 5.41897 15.8913 4.95855L11.5907 0.666553C11.1295 0.206124 10.3822 0.206709 9.92176 0.668194C9.46133 1.12956 9.46203 1.87675 9.9234 2.33718L14.2239 6.62929Z" fill="#D9CB9E"/>
<path d="M44.733 6.97413C45.0348 6.97413 45.3367 6.85905 45.567 6.62901L49.8643 2.3369C50.3255 1.87636 50.3259 1.12905 49.8653 0.66792C49.4047 0.206787 48.6575 0.206319 48.1963 0.666983L43.899 4.95909C43.4379 5.41964 43.4374 6.16694 43.8981 6.62808C44.1286 6.85882 44.4308 6.97413 44.733 6.97413Z" fill="#D9CB9E"/>
<path d="M7.36164 50.7662C6.90473 51.2309 6.91105 51.9782 7.37594 52.4351L7.37934 52.4384C7.60867 52.6639 7.90644 52.7762 8.2041 52.7762C8.50961 52.7762 8.81512 52.6579 9.04656 52.4225C9.50347 51.9577 9.49539 51.2088 9.03062 50.7519C8.56597 50.2949 7.81879 50.3014 7.36164 50.7662Z" fill="#D9CB9E"/>
<path d="M40.1491 41.2813C40.3287 41.2813 40.5108 41.2404 40.6817 41.1543C41.2637 40.8607 41.4975 40.151 41.2041 39.5691C40.9105 38.9871 40.2007 38.7532 39.6189 39.0467L39.6123 39.05C39.0303 39.3436 38.7998 40.0516 39.0933 40.6336C39.3005 41.0447 39.7172 41.2813 40.1491 41.2813Z" fill="#D9CB9E"/>
</g>
<defs>
<clipPath id="clip0_72_459">
<rect width="60" height="60" fill="white"/>
</clipPath>
</defs>
</svg>
