<svg width="232" height="50" viewBox="0 0 232 50" fill="none" xmlns="http://www.w3.org/2000/svg">
<g opacity="0.2" clip-path="url(#clip0_72_270)">
<path d="M0 24.9513C0 10.8187 10.3488 0 23.1384 0C35.9279 0 46.3744 10.8187 46.3744 24.9513C46.3744 39.0838 36.0256 49.9025 23.1384 49.9025C10.3488 50 0 39.0838 0 24.9513ZM36.2208 24.9513C36.2208 16.3743 30.4606 10.7212 23.236 10.7212C16.0114 10.7212 10.2512 16.3743 10.2512 24.9513C10.2512 33.5283 16.0114 39.1813 23.236 39.1813C30.4606 39.2788 36.2208 33.5283 36.2208 24.9513Z" fill="#ADB7D0"/>
<path d="M49.108 33.6258L60.0426 32.5537C61.8 36.5498 64.8265 39.1813 70.3914 39.1813C75.7611 39.1813 77.0303 37.1346 77.0303 35.2827C77.0303 32.3587 74.199 31.1891 66.8767 29.1424C59.5545 27.193 50.2796 23.6843 50.2796 14.5225C50.2796 5.26321 60.3355 -0.0974121 68.8293 -0.0974121C76.9327 -0.0974121 88.1601 4.19109 88.6483 15.9845L77.3232 16.1794C75.6635 12.7681 73.3203 10.6238 68.8293 10.6238C65.3147 10.6238 63.5573 12.3782 63.5573 14.2301C63.5573 16.4718 64.7289 17.9338 72.4417 20.1755C79.8616 22.4172 88.2578 24.9513 88.2578 35.0878C88.2578 44.347 80.6426 49.8051 70.0009 49.8051C59.6521 50 51.3535 48.733 49.108 33.6258Z" fill="#ADB7D0"/>
<path d="M113.056 33.2358H104.855V49.0253H93.5298V0.974609H116.18C125.553 0.974609 133.07 8.28455 133.07 17.4463C133.07 23.3918 129.458 28.6549 123.99 31.384L131.508 49.0253H119.402L113.056 33.2358ZM104.855 23.5867H116.18C119.304 23.5867 121.843 20.9551 121.843 17.4463C121.843 13.9376 119.304 11.306 116.18 11.306H104.855V23.5867Z" fill="#ADB7D0"/>
<path d="M165.678 41.423H147.422L144.981 48.9278H132.679L149.374 0.974609H163.726L180.421 49.0253H168.119L165.678 41.423ZM162.261 31.189L156.501 13.5477L150.741 31.189H162.261Z" fill="#ADB7D0"/>
<path d="M231.579 49.0253H220.351V21.0526L207.66 41.423H206.39L193.698 21.0526V49.0253H182.471V0.974609H193.698L206.976 22.3196L220.254 0.974609H231.481V49.0253H231.579Z" fill="#ADB7D0"/>
</g>
<defs>
<clipPath id="clip0_72_270">
<rect width="231.579" height="50" fill="white"/>
</clipPath>
</defs>
</svg>
