<svg width="57" height="59" viewBox="0 0 57 59" fill="none" xmlns="http://www.w3.org/2000/svg">
<g filter="url(#filter0_d_72_656)">
<circle cx="28.5" cy="20.5" r="20.5" fill="#378858"/>
</g>
<path d="M35.997 28C27.466 28.012 20.991 21.46 21 13.003C21 12.45 21.448 12 22 12H24.64C25.135 12 25.556 12.364 25.629 12.854C25.8031 14.0291 26.1449 15.173 26.644 16.251L26.747 16.473C26.8162 16.6224 26.8311 16.7912 26.7891 16.9504C26.7471 17.1096 26.6509 17.2492 26.517 17.345C25.699 17.929 25.387 19.104 26.024 20.02C26.823 21.17 27.83 22.178 28.98 22.977C29.897 23.613 31.072 23.301 31.655 22.484C31.7507 22.3497 31.8904 22.2531 32.0498 22.211C32.2092 22.1688 32.3784 22.1836 32.528 22.253L32.749 22.355C33.827 22.855 34.971 23.197 36.146 23.371C36.636 23.444 37 23.865 37 24.361V27C37 27.1314 36.9741 27.2615 36.9238 27.3829C36.8735 27.5043 36.7997 27.6146 36.7068 27.7075C36.6138 27.8003 36.5034 27.874 36.382 27.9242C36.2606 27.9744 36.1304 28.0001 35.999 28H35.997Z" fill="white"/>
<defs>
<filter id="filter0_d_72_656" x="0" y="0" width="57" height="59" filterUnits="userSpaceOnUse" color-interpolation-filters="sRGB">
<feFlood flood-opacity="0" result="BackgroundImageFix"/>
<feColorMatrix in="SourceAlpha" type="matrix" values="0 0 0 0 0 0 0 0 0 0 0 0 0 0 0 0 0 0 127 0" result="hardAlpha"/>
<feMorphology radius="2" operator="erode" in="SourceAlpha" result="effect1_dropShadow_72_656"/>
<feOffset dy="10"/>
<feGaussianBlur stdDeviation="5"/>
<feComposite in2="hardAlpha" operator="out"/>
<feColorMatrix type="matrix" values="0 0 0 0 0.215686 0 0 0 0 0.533333 0 0 0 0 0.345098 0 0 0 0.5 0"/>
<feBlend mode="normal" in2="BackgroundImageFix" result="effect1_dropShadow_72_656"/>
<feBlend mode="normal" in="SourceGraphic" in2="effect1_dropShadow_72_656" result="shape"/>
</filter>
</defs>
</svg>
