<svg width="164" height="51" viewBox="0 0 164 51" fill="none" xmlns="http://www.w3.org/2000/svg">
<g clip-path="url(#clip0_72_640)">
<path d="M2.68324 38.2008L5.74623 45.8082L8.80922 38.2008H10.4115V47.5243H9.17601V43.8935L9.29183 39.9746L6.21598 47.5243H5.27005L2.20063 39.9938L2.32289 43.8935V47.5243H1.0874V38.2008H2.68324Z" fill="#8E8E8E"/>
<path d="M16.9107 40.5957H18.1011V47.5243H16.9107V42.472L13.6997 47.5243H12.5093V40.5957H13.6997V45.6545L16.9107 40.5957Z" fill="#8E8E8E"/>
<path d="M25.1859 41.5563H22.8501V47.5243H21.6596V41.5563H19.3688V40.5957H25.1859V41.5563Z" fill="#8E8E8E"/>
<path d="M32.0326 47.5243H30.8421V44.5659H27.644V47.5243H26.4471V40.5957H27.644V43.599H30.8421V40.5957H32.0326V47.5243Z" fill="#8E8E8E"/>
<path d="M33.6349 43.996C33.6349 43.3172 33.7679 42.7067 34.0338 42.1646C34.3041 41.6224 34.6773 41.2041 35.1535 40.9095C35.634 40.615 36.1809 40.4677 36.7944 40.4677C37.7424 40.4677 38.5082 40.7942 39.0916 41.4474C39.6793 42.1006 39.9732 42.9693 39.9732 44.0536V44.1369C39.9732 44.8114 39.8424 45.4175 39.5807 45.9554C39.3233 46.4891 38.9522 46.9053 38.4674 47.2041C37.987 47.5029 37.4336 47.6524 36.8072 47.6524C35.8635 47.6524 35.0977 47.3258 34.51 46.6726C33.9266 46.0195 33.6349 45.155 33.6349 44.0792V43.996ZM34.8317 44.1369C34.8317 44.9053 35.0098 45.5221 35.3658 45.9875C35.7262 46.4528 36.2067 46.6854 36.8072 46.6854C37.4121 46.6854 37.8926 46.4506 38.2487 45.9811C38.6047 45.5072 38.7827 44.8455 38.7827 43.996C38.7827 43.2361 38.6004 42.6214 38.2358 42.1518C37.8754 41.6779 37.395 41.441 36.7944 41.441C36.2067 41.441 35.7326 41.6737 35.3723 42.139C35.0119 42.6043 34.8317 43.2703 34.8317 44.1369Z" fill="#8E8E8E"/>
<path d="M43.9435 44.0472H40.8033V43.0803H43.9435V44.0472Z" fill="#8E8E8E"/>
<path d="M48.1648 40.9928C49.0399 40.9928 49.7392 41.2852 50.2625 41.87C50.7902 42.4506 51.054 43.2169 51.054 44.1689V44.2777C51.054 44.9309 50.9275 45.5157 50.6743 46.0323C50.4212 46.5446 50.0566 46.9437 49.5804 47.2297C49.1085 47.5115 48.5637 47.6524 47.946 47.6524C47.0108 47.6524 46.2579 47.3429 45.6873 46.7239C45.1168 46.1006 44.8315 45.266 44.8315 44.2201V43.6438C44.8315 42.1881 45.1018 41.0312 45.6423 40.1731C46.1871 39.315 46.9893 38.7921 48.0489 38.6043C48.6495 38.4975 49.0549 38.3673 49.2651 38.2137C49.4753 38.06 49.5804 37.8487 49.5804 37.5797H50.5585C50.5585 38.1133 50.4363 38.5296 50.1917 38.8284C49.9515 39.1272 49.5654 39.3385 49.0335 39.4623L48.1455 39.6608C47.4376 39.8273 46.9057 40.1091 46.5496 40.5061C46.1978 40.8988 45.9683 41.4239 45.8611 42.0813C46.4917 41.3556 47.2596 40.9928 48.1648 40.9928ZM47.9331 41.9661C47.3497 41.9661 46.8864 42.1625 46.5432 42.5552C46.2 42.9437 46.0284 43.4837 46.0284 44.1753V44.2777C46.0284 45.0205 46.2 45.6097 46.5432 46.0451C46.8907 46.4763 47.3583 46.6918 47.946 46.6918C48.538 46.6918 49.0056 46.4741 49.3488 46.0387C49.692 45.6032 49.8636 44.9672 49.8636 44.1305C49.8636 43.4773 49.6898 42.9543 49.3423 42.5616C48.9991 42.1646 48.5294 41.9661 47.9331 41.9661Z" fill="#8E8E8E"/>
<path d="M58.1581 44.1369C58.1581 45.1913 57.9157 46.0408 57.4309 46.6854C56.9462 47.33 56.2898 47.6524 55.4619 47.6524C54.6168 47.6524 53.9518 47.3855 53.4671 46.8519V50.1881H52.2766V40.5957H53.3641L53.422 41.3642C53.9068 40.7665 54.5803 40.4677 55.4426 40.4677C56.2791 40.4677 56.9397 40.7814 57.4245 41.409C57.9136 42.0365 58.1581 42.9095 58.1581 44.028V44.1369ZM56.9676 44.0024C56.9676 43.2212 56.8003 42.6043 56.4657 42.1518C56.1311 41.6993 55.6721 41.473 55.0887 41.473C54.368 41.473 53.8274 41.7911 53.4671 42.4271V45.7377C53.8231 46.3695 54.368 46.6854 55.1015 46.6854C55.6721 46.6854 56.1247 46.4613 56.4593 46.0131C56.7982 45.5606 56.9676 44.8903 56.9676 44.0024Z" fill="#8E8E8E"/>
<path d="M59.3614 43.996C59.3614 43.3172 59.4944 42.7067 59.7604 42.1646C60.0306 41.6224 60.4038 41.2041 60.88 40.9095C61.3605 40.615 61.9074 40.4677 62.5209 40.4677C63.469 40.4677 64.2347 40.7942 64.8181 41.4474C65.4059 42.1006 65.6997 42.9693 65.6997 44.0536V44.1369C65.6997 44.8114 65.5689 45.4175 65.3072 45.9554C65.0498 46.4891 64.6787 46.9053 64.194 47.2041C63.7135 47.5029 63.1601 47.6524 62.5338 47.6524C61.59 47.6524 60.8242 47.3258 60.2365 46.6726C59.6531 46.0195 59.3614 45.155 59.3614 44.0792V43.996ZM60.5583 44.1369C60.5583 44.9053 60.7363 45.5221 61.0924 45.9875C61.4527 46.4528 61.9332 46.6854 62.5338 46.6854C63.1386 46.6854 63.6191 46.4506 63.9752 45.9811C64.3312 45.5072 64.5093 44.8455 64.5093 43.996C64.5093 43.2361 64.327 42.6214 63.9623 42.1518C63.602 41.6779 63.1215 41.441 62.5209 41.441C61.9332 41.441 61.4592 41.6737 61.0988 42.139C60.7385 42.6043 60.5583 43.2703 60.5583 44.1369Z" fill="#8E8E8E"/>
<path d="M69.3612 44.5723H68.4924V47.5243H67.2956V40.5957H68.4924V43.5285H69.2711L71.6133 40.5957H73.0547L70.3006 43.9255L73.2864 47.5243H71.7742L69.3612 44.5723Z" fill="#8E8E8E"/>
<path d="M77.0958 47.6524C76.1521 47.6524 75.3842 47.345 74.7922 46.7303C74.2002 46.1113 73.9042 45.2852 73.9042 44.2521V44.0344C73.9042 43.3471 74.035 42.7345 74.2967 42.1966C74.5627 41.6544 74.9316 41.2318 75.4035 40.9287C75.8797 40.6214 76.3944 40.4677 76.9478 40.4677C77.853 40.4677 78.5565 40.7644 79.0585 41.3578C79.5604 41.9511 79.8113 42.8007 79.8113 43.9063V44.3994H75.0946C75.1118 45.0824 75.3112 45.6353 75.693 46.0579C76.0791 46.4763 76.5682 46.6854 77.1602 46.6854C77.5806 46.6854 77.9367 46.6001 78.2284 46.4293C78.5201 46.2585 78.7753 46.0323 78.9941 45.7505L79.7213 46.314C79.1378 47.2062 78.2627 47.6524 77.0958 47.6524ZM76.9478 41.441C76.4674 41.441 76.0641 41.616 75.7381 41.9661C75.412 42.3119 75.2104 42.7985 75.1332 43.4261H78.6209V43.3364C78.5866 42.7345 78.4236 42.2692 78.1319 41.9405C77.8401 41.6075 77.4455 41.441 76.9478 41.441Z" fill="#8E8E8E"/>
<path d="M87.0763 44.1369C87.0763 45.1913 86.8339 46.0408 86.3492 46.6854C85.8644 47.33 85.208 47.6524 84.3801 47.6524C83.535 47.6524 82.87 47.3855 82.3853 46.8519V50.1881H81.1948V40.5957H82.2823L82.3402 41.3642C82.825 40.7665 83.4985 40.4677 84.3608 40.4677C85.1973 40.4677 85.858 40.7814 86.3427 41.409C86.8318 42.0365 87.0763 42.9095 87.0763 44.028V44.1369ZM85.8858 44.0024C85.8858 43.2212 85.7185 42.6043 85.3839 42.1518C85.0493 41.6993 84.5903 41.473 84.0069 41.473C83.2862 41.473 82.7456 41.7911 82.3853 42.4271V45.7377C82.7413 46.3695 83.2862 46.6854 84.0197 46.6854C84.5903 46.6854 85.0429 46.4613 85.3775 46.0131C85.7164 45.5606 85.8858 44.8903 85.8858 44.0024Z" fill="#8E8E8E"/>
<path d="M91.3876 46.6854C91.8123 46.6854 92.1834 46.5574 92.5009 46.3012C92.8183 46.0451 92.9942 45.7249 93.0285 45.3407H94.1546C94.1332 45.7377 93.9959 46.1155 93.7428 46.4741C93.4897 46.8327 93.1508 47.1187 92.7261 47.3322C92.3057 47.5456 91.8595 47.6524 91.3876 47.6524C90.4396 47.6524 89.6845 47.3386 89.1226 46.711C88.5649 46.0792 88.286 45.2169 88.286 44.124V43.9255C88.286 43.251 88.4104 42.6513 88.6593 42.1262C88.9081 41.6011 89.2641 41.1934 89.7274 40.9031C90.195 40.6128 90.7463 40.4677 91.3812 40.4677C92.162 40.4677 92.8097 40.7003 93.3245 41.1656C93.8436 41.631 94.1203 42.235 94.1546 42.9778H93.0285C92.9942 42.5296 92.8226 42.1625 92.5137 41.8764C92.2092 41.5861 91.8316 41.441 91.3812 41.441C90.7763 41.441 90.3066 41.6587 89.972 42.0942C89.6416 42.5253 89.4765 43.1507 89.4765 43.9704V44.1945C89.4765 44.9928 89.6416 45.6075 89.972 46.0387C90.3023 46.4698 90.7742 46.6854 91.3876 46.6854Z" fill="#8E8E8E"/>
<path d="M96.7929 42.9842H98.6011C99.3904 42.9928 100.015 43.1977 100.474 43.599C100.933 44.0002 101.162 44.5445 101.162 45.2318C101.162 45.9234 100.926 46.4784 100.454 46.8967C99.9825 47.3151 99.3475 47.5243 98.5496 47.5243H95.6025V40.5957H96.7929V42.9842ZM96.7929 43.9512V46.5574H98.5625C99.0086 46.5574 99.354 46.4442 99.5985 46.218C99.843 45.9875 99.9653 45.6737 99.9653 45.2767C99.9653 44.8925 99.8452 44.5787 99.6049 44.3354C99.369 44.0878 99.0365 43.9597 98.6075 43.9512H96.7929Z" fill="#8E8E8E"/>
<path d="M104.817 44.5723H103.948V47.5243H102.752V40.5957H103.948V43.5285H104.727L107.069 40.5957H108.511L105.757 43.9255L108.742 47.5243H107.23L104.817 44.5723Z" fill="#8E8E8E"/>
<path d="M111.059 47.5243H109.869V40.5957H111.059V47.5243ZM109.772 38.7579C109.772 38.5658 109.83 38.4036 109.946 38.2713C110.066 38.1389 110.242 38.0728 110.473 38.0728C110.705 38.0728 110.881 38.1389 111.001 38.2713C111.121 38.4036 111.181 38.5658 111.181 38.7579C111.181 38.9501 111.121 39.1101 111.001 39.2382C110.881 39.3663 110.705 39.4303 110.473 39.4303C110.242 39.4303 110.066 39.3663 109.946 39.2382C109.83 39.1101 109.772 38.9501 109.772 38.7579Z" fill="#8E8E8E"/>
<path d="M121.934 47.5243H120.743V41.5755H117.539V47.5243H116.342V40.5957H121.934V47.5243Z" fill="#8E8E8E"/>
<path d="M123.53 43.996C123.53 43.3172 123.663 42.7067 123.929 42.1646C124.199 41.6224 124.572 41.2041 125.048 40.9095C125.529 40.615 126.076 40.4677 126.689 40.4677C127.637 40.4677 128.403 40.7942 128.986 41.4474C129.574 42.1006 129.868 42.9693 129.868 44.0536V44.1369C129.868 44.8114 129.737 45.4175 129.476 45.9554C129.218 46.4891 128.847 46.9053 128.362 47.2041C127.882 47.5029 127.328 47.6524 126.702 47.6524C125.758 47.6524 124.993 47.3258 124.405 46.6726C123.821 46.0195 123.53 45.155 123.53 44.0792V43.996ZM124.727 44.1369C124.727 44.9053 124.905 45.5221 125.261 45.9875C125.621 46.4528 126.102 46.6854 126.702 46.6854C127.307 46.6854 127.787 46.4506 128.143 45.9811C128.5 45.5072 128.678 44.8455 128.678 43.996C128.678 43.2361 128.495 42.6214 128.131 42.1518C127.77 41.6779 127.29 41.441 126.689 41.441C126.102 41.441 125.627 41.6737 125.267 42.139C124.907 42.6043 124.727 43.2703 124.727 44.1369Z" fill="#8E8E8E"/>
<path d="M134.154 46.6854C134.578 46.6854 134.949 46.5574 135.267 46.3012C135.584 46.0451 135.76 45.7249 135.795 45.3407H136.921C136.899 45.7377 136.762 46.1155 136.509 46.4741C136.256 46.8327 135.917 47.1187 135.492 47.3322C135.072 47.5456 134.626 47.6524 134.154 47.6524C133.206 47.6524 132.451 47.3386 131.889 46.711C131.331 46.0792 131.052 45.2169 131.052 44.124V43.9255C131.052 43.251 131.176 42.6513 131.425 42.1262C131.674 41.6011 132.03 41.1934 132.493 40.9031C132.961 40.6128 133.512 40.4677 134.147 40.4677C134.928 40.4677 135.576 40.7003 136.091 41.1656C136.61 41.631 136.886 42.235 136.921 42.9778H135.795C135.76 42.5296 135.589 42.1625 135.28 41.8764C134.975 41.5861 134.598 41.441 134.147 41.441C133.542 41.441 133.073 41.6587 132.738 42.0942C132.408 42.5253 132.242 43.1507 132.242 43.9704V44.1945C132.242 44.9928 132.408 45.6075 132.738 46.0387C133.068 46.4698 133.54 46.6854 134.154 46.6854Z" fill="#8E8E8E"/>
<path d="M143.967 40.5957V47.5243H142.77V41.5755H140.402L140.26 44.1689C140.183 45.3599 139.981 46.2116 139.655 46.7239C139.334 47.2361 138.821 47.5029 138.118 47.5243H137.641V46.4805L137.982 46.4549C138.368 46.4122 138.645 46.1902 138.812 45.7889C138.98 45.3877 139.087 44.6449 139.134 43.5605L139.263 40.5957H143.967Z" fill="#8E8E8E"/>
<path d="M148.156 45.7889L149.777 40.5957H151.052L148.252 48.5937C147.819 49.7463 147.131 50.3226 146.187 50.3226L145.962 50.3034L145.518 50.2201V49.2596L145.839 49.2852C146.243 49.2852 146.556 49.2041 146.779 49.0419C147.006 48.8797 147.193 48.583 147.339 48.1518L147.602 47.4474L145.119 40.5957H146.418L148.156 45.7889Z" fill="#8E8E8E"/>
<path d="M156.618 41.5755H153.407V47.5243H152.21V40.5957H156.618V41.5755Z" fill="#8E8E8E"/>
<path d="M162.158 40.5957H163.349V47.5243H162.158V42.472L158.947 47.5243H157.757V40.5957H158.947V45.6545L162.158 40.5957Z" fill="#8E8E8E"/>
<path d="M13.4185 22.4172V19.8307C13.4185 18.234 13.0243 17.1419 12.2357 16.5544C11.4601 15.954 9.87 15.6539 7.46552 15.6539H2.85047V26.5365H7.46552C9.88292 26.5365 11.4794 26.2428 12.2551 25.6552C13.0307 25.0676 13.4185 23.9883 13.4185 22.4172ZM16.3272 22.7238C16.3272 25.0996 15.7196 26.7665 14.5044 27.7244C13.3022 28.6824 11.1692 29.1614 8.10542 29.1614H0V0.709381H7.54308C10.8395 0.709381 13.0307 1.13728 14.1166 1.99308C15.2154 2.84887 15.7648 4.40719 15.7648 6.66802V9.15877C15.7648 10.5383 15.4998 11.6112 14.9698 12.3776C14.4398 13.144 13.5543 13.7443 12.3133 14.1786C13.7094 14.549 14.7242 15.2004 15.3576 16.1329C16.004 17.0525 16.3272 18.349 16.3272 20.0223V22.7238ZM2.85047 12.9141H7.27161C9.57267 12.9141 11.0916 12.6714 11.8285 12.186C12.5783 11.7006 12.9532 10.7937 12.9532 9.46533V6.32315C12.9532 5.19912 12.5847 4.42635 11.8479 4.00484C11.1239 3.58333 9.59852 3.37257 7.27161 3.37257H2.85047V12.9141Z" fill="#378858"/>
<path d="M94.6841 28.7931V1.43298H97.5345V28.7931H94.6841Z" fill="#378858"/>
<path d="M115.888 11.4524C116.42 10.4739 117.114 9.7463 117.968 9.26961C118.837 8.79291 119.895 8.55457 121.142 8.55457C123.075 8.55457 124.462 9.07517 125.303 10.1164C126.144 11.145 126.564 12.8887 126.564 15.3474V28.444H123.811V16.0437C123.811 14.1118 123.552 12.7633 123.033 11.998C122.529 11.2203 121.667 10.8314 120.448 10.8314C118.949 10.8314 117.884 11.3206 117.254 12.2991C116.623 13.2776 116.308 15.0087 116.308 17.4926V28.444H113.513V16.0437C113.513 14.0742 113.268 12.7131 112.778 11.9604C112.287 11.2077 111.447 10.8314 110.256 10.8314C108.742 10.8314 107.664 11.3269 107.019 12.3179C106.389 13.309 106.073 15.0338 106.073 17.4926V28.444H103.278V8.91209H105.863V11.1701C106.396 10.292 107.082 9.63967 107.923 9.21315C108.763 8.7741 109.765 8.55457 110.928 8.55457C112.231 8.55457 113.296 8.79919 114.123 9.28842C114.949 9.77766 115.538 10.499 115.888 11.4524Z" fill="#378858"/>
<path d="M133.524 16.7211H141.222V15.498C141.222 13.6916 140.946 12.4685 140.394 11.8287C139.854 11.1889 138.844 10.869 137.363 10.869C135.895 10.869 134.885 11.1952 134.333 11.8475C133.794 12.4873 133.524 13.7041 133.524 15.498V16.7211ZM133.524 19.1484V21.0113C133.524 23.2819 133.775 24.7308 134.277 25.358C134.779 25.9727 135.782 26.28 137.288 26.28C138.869 26.28 139.942 26.048 140.507 25.5838C141.084 25.1197 141.372 24.2604 141.372 23.0059V22.3849H143.687V23.0435C143.687 25.0758 143.185 26.5435 142.182 27.4467C141.19 28.3373 139.559 28.7827 137.288 28.7827C134.917 28.7827 133.248 28.2056 132.282 27.0515C131.328 25.8974 130.851 23.8715 130.851 20.9737V16.3447C130.851 13.4469 131.328 11.4273 132.282 10.2857C133.235 9.13161 134.917 8.55457 137.326 8.55457C139.71 8.55457 141.372 9.12534 142.313 10.2669C143.254 11.4085 143.725 13.4344 143.725 16.3447V19.1484H133.524Z" fill="#378858"/>
<path d="M145.743 28.444L151.832 16.4523L146.165 5.61374H148.813L153.552 15.0072L158.207 5.61374H160.669L155.036 16.8828L161.108 28.444H158.392L153.282 18.3433L148.239 28.444H145.743Z" fill="#CC3759"/>
<path d="M27.9082 11.8806H27.726C27.1695 11.8806 26.6231 11.9476 26.0868 12.0815C25.5505 12.2153 25.0446 12.4229 24.569 12.704C24.1036 12.9717 23.6786 13.3064 23.2941 13.7081C22.9197 14.1097 22.606 14.585 22.3531 15.1339V29.1614H20.0005V9.32063C20.0005 9.32063 20.4446 9.35037 20.8661 9.91091C21.6808 10.6929 21.9366 11.253 21.9366 11.253C22.1693 10.7576 21.6027 11.6814 21.9366 11.253C23.149 10.5763 24.4922 9.57568 25.7225 9.14426C26.2285 8.95684 26.7597 8.86313 27.3162 8.86313C27.4174 8.86313 27.5186 8.87061 27.6198 8.88313C27.7311 8.88313 27.8272 8.88954 27.9082 8.90324L27.9082 11.8806Z" fill="#378858"/>
<path d="M70.988 18.0192L78.9461 9.15979H82.012L73.8111 18.2909L81.9968 29.01H79.0675L70.988 18.4371V18.0192Z" fill="#378858"/>
<path d="M70.5716 29.01H68.219V1.42474H70.5716V29.01Z" fill="#378858"/>
<path d="M33.5697 16.5389V21.2905C33.5697 23.5641 33.8347 25.033 34.3647 25.6972C34.8947 26.3614 35.9224 26.6935 37.4479 26.6935C38.9733 26.6935 40.001 26.355 40.531 25.678C41.074 25.001 41.3454 23.5385 41.3454 21.2905V16.5389C41.3454 14.2781 41.0804 12.8155 40.5504 12.1513C40.0204 11.4871 38.9862 11.155 37.4479 11.155C35.9224 11.155 34.8947 11.4935 34.3647 12.1705C33.8347 12.8475 33.5697 14.3036 33.5697 16.5389ZM44.0796 21.2522C44.0796 24.2155 43.5883 26.2847 42.6059 27.4599C41.6363 28.6222 39.917 29.2034 37.4479 29.2034C35.0046 29.2034 33.2853 28.6158 32.2899 27.4407C31.3074 26.2656 30.8162 24.2027 30.8162 21.2522V16.5389C30.8162 13.5883 31.3074 11.5318 32.2899 10.3695C33.2723 9.19437 35.0046 8.60681 37.4866 8.60681C39.9428 8.60681 41.6557 9.18799 42.6252 10.3503C43.5948 11.5127 44.0796 13.5755 44.0796 16.5389V21.2522Z" fill="#378858"/>
<path d="M62.3697 21.8233V22.6471C62.3697 25.0612 61.872 26.8112 60.8766 27.8969C59.8812 28.9698 58.2717 29.5063 56.0482 29.5063C53.592 29.5063 51.8727 28.9251 50.8902 27.7628C49.9077 26.5876 49.4165 24.5184 49.4165 21.555V16.8418C49.4165 13.8912 49.9077 11.8347 50.8902 10.6724C51.8727 9.49726 53.6049 8.9097 56.087 8.9097C58.1683 8.9097 59.6614 9.36953 60.5663 10.2892C61.4712 11.1961 61.9237 12.6969 61.9237 14.7917V15.788H59.3447V15.424C59.3447 13.9806 59.0797 12.9588 58.5496 12.3584C58.0196 11.7581 57.1083 11.4579 55.8155 11.4579C54.3806 11.4579 53.411 11.7836 52.9069 12.4351C52.4156 13.0865 52.17 14.5554 52.17 16.8418V21.5934C52.17 23.867 52.4286 25.3359 52.9457 26.0001C53.4627 26.6643 54.4582 26.9964 55.9319 26.9964C57.3797 26.9964 58.3687 26.7026 58.8987 26.115C59.4416 25.5147 59.7131 24.346 59.7131 22.6088V21.8233H62.3697Z" fill="#378858"/>
</g>
<defs>
<clipPath id="clip0_72_640">
<rect width="164" height="51" fill="white"/>
</clipPath>
</defs>
</svg>
