<svg width="12" height="12" viewBox="0 0 12 12" fill="none" xmlns="http://www.w3.org/2000/svg">
<g clip-path="url(#clip0_654_115)">
<path d="M10.5 2.625H6V3.75H11.1562C10.9875 3.35625 10.7625 2.9625 10.5 2.625Z" fill="#ED4C5C"/>
<path d="M11.5125 7.125C11.5875 6.76875 11.625 6.39375 11.625 6H0.375C0.375 6.39375 0.4125 6.76875 0.4875 7.125H11.5125Z" fill="#F9F9F9"/>
<path d="M6 0.375V1.5H9.375C8.4375 0.7875 7.275 0.375 6 0.375Z" fill="#ED4C5C"/>
<path d="M6 2.625H10.5C10.1813 2.19375 9.80625 1.81875 9.375 1.5H6V2.625Z" fill="#F9F9F9"/>
<path d="M11.1563 3.75H6V4.875H11.5125C11.4375 4.48125 11.3063 4.10625 11.1563 3.75Z" fill="#F9F9F9"/>
<path d="M6 4.875V6H11.625C11.625 5.60625 11.5875 5.23125 11.5125 4.875H6Z" fill="#ED4C5C"/>
<path d="M0.843799 8.25H11.1563C11.3063 7.89375 11.4376 7.51875 11.5126 7.125H0.487549C0.562549 7.51875 0.693799 7.89375 0.843799 8.25Z" fill="#ED4C5C"/>
<path d="M1.5 9.375H10.5C10.7625 9.0375 10.9875 8.64375 11.1562 8.25H0.84375C1.0125 8.64375 1.2375 9.0375 1.5 9.375Z" fill="#F9F9F9"/>
<path d="M1.5 9.375C1.81875 9.80625 2.19375 10.1812 2.625 10.5H9.375C9.80625 10.1812 10.1812 9.80625 10.5 9.375H1.5Z" fill="#ED4C5C"/>
<path d="M2.625 10.5C3.5625 11.2125 4.725 11.625 6 11.625C7.275 11.625 8.4375 11.2125 9.375 10.5H2.625Z" fill="#F9F9F9"/>
<path d="M6 0.375C2.8875 0.375 0.375 2.8875 0.375 6H6V0.375Z" fill="#2A5F9E"/>
<path d="M3.75 4.1625L4.8 4.875L4.40625 3.73125L5.4375 3.01875H4.14375L3.75 1.875L3.35625 3.01875H2.0625L3.09375 3.73125L2.7 4.875L3.75 4.1625Z" fill="white"/>
</g>
<defs>
<clipPath id="clip0_654_115">
<rect width="12" height="12" fill="white"/>
</clipPath>
</defs>
</svg>
