<svg width="12" height="12" viewBox="0 0 12 12" fill="none" xmlns="http://www.w3.org/2000/svg">
<g clip-path="url(#clip0_72_571)">
<path d="M6 11.625C9.1066 11.625 11.625 9.1066 11.625 6C11.625 2.8934 9.1066 0.375 6 0.375C2.8934 0.375 0.375 2.8934 0.375 6C0.375 9.1066 2.8934 11.625 6 11.625Z" fill="#2A5F9E"/>
<path d="M6 2.21249L6.13125 2.62499H6.5625L6.225 2.88749L6.35625 3.29999L6 3.03749L5.64375 3.29999L5.775 2.88749L5.4375 2.62499H5.86875L6 2.21249Z" fill="#FFCE31"/>
<path d="M6 8.58749L6.13125 8.99999H6.5625L6.225 9.24374L6.35625 9.67499L6 9.41249L5.64375 9.67499L5.775 9.24374L5.4375 8.99999H5.86875L6 8.58749Z" fill="#FFCE31"/>
<path d="M7.57495 8.0625L7.7062 8.475H8.1562L7.79995 8.7375L7.9312 9.15L7.57495 8.8875L7.2187 9.15L7.3687 8.7375L7.01245 8.475H7.4437L7.57495 8.0625Z" fill="#FFCE31"/>
<path d="M8.66248 6.97501L8.79373 7.38751H9.24373L8.88748 7.65001L9.01873 8.06251L8.66248 7.80001L8.30623 8.06251L8.45623 7.65001L8.09998 7.38751H8.53123L8.66248 6.97501Z" fill="#FFCE31"/>
<path d="M9.18745 5.39999L9.3187 5.81249H9.74995L9.3937 6.07499L9.52495 6.48749L9.18745 6.22499L8.8312 6.48749L8.96245 6.07499L8.6062 5.81249H9.03745L9.18745 5.39999Z" fill="#FFCE31"/>
<path d="M8.66248 3.80624L8.79373 4.23749H9.24373L8.88748 4.48124L9.01873 4.89374L8.66248 4.64999L8.30623 4.89374L8.45623 4.48124L8.09998 4.23749H8.53123L8.66248 3.80624Z" fill="#FFCE31"/>
<path d="M7.57495 2.71875L7.7062 3.15H8.1562L7.79995 3.39375L7.9312 3.80625L7.57495 3.5625L7.2187 3.80625L7.3687 3.39375L7.01245 3.15H7.4437L7.57495 2.71875Z" fill="#FFCE31"/>
<path d="M4.425 8.0625L4.29375 8.475H3.84375L4.2 8.7375L4.06875 9.15L4.425 8.8875L4.78125 9.15L4.63125 8.7375L4.9875 8.475H4.55625L4.425 8.0625Z" fill="#FFCE31"/>
<path d="M3.33748 6.97501L3.20623 7.38751H2.75623L3.11248 7.65001L2.98123 8.06251L3.33748 7.80001L3.69373 8.06251L3.54373 7.65001L3.89998 7.38751H3.46873L3.33748 6.97501Z" fill="#FFCE31"/>
<path d="M2.8125 5.39999L2.68125 5.81249H2.25L2.60625 6.07499L2.475 6.48749L2.8125 6.22499L3.16875 6.48749L3.0375 6.07499L3.39375 5.81249H2.9625L2.8125 5.39999Z" fill="#FFCE31"/>
<path d="M3.33748 3.80624L3.20623 4.23749H2.75623L3.11248 4.48124L2.98123 4.89374L3.33748 4.64999L3.69373 4.89374L3.54373 4.48124L3.89998 4.23749H3.46873L3.33748 3.80624Z" fill="#FFCE31"/>
<path d="M4.425 2.71875L4.29375 3.15H3.84375L4.2 3.39375L4.06875 3.80625L4.425 3.5625L4.78125 3.80625L4.63125 3.39375L4.9875 3.15H4.55625L4.425 2.71875Z" fill="#FFCE31"/>
</g>
<defs>
<clipPath id="clip0_72_571">
<rect width="12" height="12" fill="white"/>
</clipPath>
</defs>
</svg>
