<svg width="12" height="12" viewBox="0 0 12 12" fill="none" xmlns="http://www.w3.org/2000/svg">
<g clip-path="url(#clip0_72_560)">
<path d="M9 1.2375C8.1375 0.69375 7.10625 0.375 6 0.375C4.89375 0.375 3.8625 0.69375 3 1.2375V10.7438C3.8625 11.2875 4.89375 11.6063 6 11.6063C7.10625 11.6063 8.1375 11.2875 9 10.7438V1.2375Z" fill="#F9F9F9"/>
<path d="M9 1.23749V10.7437C10.575 9.76874 11.625 7.96874 11.625 5.98124C11.625 3.99374 10.575 2.23124 9 1.23749Z" fill="#ED4C5C"/>
<path d="M3 1.23749C1.425 2.23124 0.375 4.03124 0.375 5.99999C0.375 7.96874 1.425 9.76874 3 10.7625V1.23749Z" fill="#ED4C5C"/>
<path d="M8.04375 5.925C7.96875 5.8875 7.95 5.8125 7.96875 5.775L8.15625 5.1L7.5 5.23125C7.48125 5.23125 7.40625 5.23125 7.3875 5.1L7.33125 4.875L6.88125 5.4C6.88125 5.4 6.58125 5.71875 6.675 5.23125L6.8625 4.2L6.50625 4.3875C6.4875 4.3875 6.4125 4.40625 6.31875 4.21875L6 3.5625L5.6625 4.18125C5.56875 4.36875 5.49375 4.35 5.475 4.35L5.11875 4.1625L5.30625 5.19375C5.4 5.68125 5.1 5.3625 5.1 5.3625L4.65 4.8375L4.59375 5.0625C4.55625 5.19375 4.5 5.19375 4.48125 5.19375L3.825 5.0625L4.0125 5.7375C4.0125 5.79375 4.0125 5.85 3.9375 5.8875L3.75 6C3.75 6 4.5 6.6 4.74375 6.80625C4.8 6.84375 4.9125 6.95625 4.875 7.0875L4.78125 7.35L5.8125 7.2C5.86875 7.2 5.98125 7.2 5.9625 7.36875L5.90625 8.4375H6.09375L6.0375 7.36875C6.0375 7.2 6.15 7.2 6.1875 7.2L7.21875 7.35L7.125 7.0875C7.0875 6.95625 7.2 6.84375 7.25625 6.80625C7.5 6.6 8.25 6 8.25 6L8.04375 5.925Z" fill="#ED4C5C"/>
</g>
<defs>
<clipPath id="clip0_72_560">
<rect width="12" height="12" fill="white"/>
</clipPath>
</defs>
</svg>
