<svg width="60" height="60" viewBox="0 0 60 60" fill="none" xmlns="http://www.w3.org/2000/svg">
<g clip-path="url(#clip0_72_483)">
<path d="M4.83868 5.80645H33.8709V12.5806C33.8709 13.116 34.3033 13.5484 34.8387 13.5484H41.6129V21.2903H43.5484V12.5806C43.5484 12.3127 43.4392 12.0708 43.2639 11.8955L35.5248 4.15638C35.3485 3.98012 35.1066 3.87097 34.8387 3.87097H8.70965V1.93548H45.4838V23.2258H47.4193V0.967742C47.4193 0.432365 46.987 0 46.4516 0H7.74191C7.20653 0 6.77417 0.432365 6.77417 0.967742V3.87097H3.87094C3.33556 3.87097 2.9032 4.30333 2.9032 4.83871V59.0323C2.9032 59.5676 3.33556 60 3.87094 60H36.7742V58.0645H4.83868V5.80645ZM35.8064 7.1749L40.2444 11.6129H35.8064V7.1749Z" fill="#D9CB9E"/>
<path d="M56.1291 29.0323H54.6718C50.3505 29.0323 46.2863 27.1289 43.5206 23.8103L43.3249 23.575C42.9583 23.1327 42.2041 23.1327 41.8374 23.575L41.6418 23.8094C38.8751 27.1289 34.8109 29.0323 30.4896 29.0323H29.0323C28.4969 29.0323 28.0646 29.4646 28.0646 30V45.6733C28.0646 49.4843 30.1201 53.0264 33.4287 54.9165L42.1006 59.8724C42.249 59.9575 42.4153 60 42.5807 60C42.7461 60 42.9124 59.9575 43.0608 59.8724L51.7327 54.9165C55.0413 53.0264 57.0968 49.4843 57.0968 45.6733V30C57.0968 29.4646 56.6645 29.0323 56.1291 29.0323ZM55.1613 45.6733C55.1613 48.7916 53.4806 51.6891 50.7725 53.2353L42.5807 57.9185L34.3889 53.2367C31.6808 51.6891 30.0001 48.7916 30.0001 45.6733V30.9677H30.4896C35.1076 30.9677 39.4686 29.0488 42.5807 25.673C45.6918 29.0488 50.0538 30.9677 54.6718 30.9677H55.1613V45.6733Z" fill="#D9CB9E"/>
<path d="M42.5807 31.9355C36.7114 31.9355 31.9355 36.7113 31.9355 42.5806C31.9355 48.4499 36.7114 53.2258 42.5807 53.2258C48.45 53.2258 53.2259 48.4499 53.2259 42.5806C53.2259 36.7113 48.45 31.9355 42.5807 31.9355ZM42.5807 51.2903C37.7779 51.2903 33.871 47.3834 33.871 42.5806C33.871 37.7778 37.7779 33.871 42.5807 33.871C47.3835 33.871 51.2904 37.7778 51.2904 42.5806C51.2904 47.3834 47.3835 51.2903 42.5807 51.2903Z" fill="#D9CB9E"/>
<path d="M42.1189 45.5893L40.3616 43.8319L38.9932 45.2004L41.8964 48.1036C42.0793 48.2874 42.3269 48.3871 42.5806 48.3871C42.659 48.3871 42.7384 48.3777 42.8169 48.3583C43.1476 48.2747 43.409 48.0233 43.5077 47.6972L46.4109 38.0198L44.5567 37.4641L42.1189 45.5893Z" fill="#D9CB9E"/>
<path d="M6.77417 15.4839H31.9355V17.4194H6.77417V15.4839Z" fill="#D9CB9E"/>
<path d="M6.77417 19.3549H31.9355V21.2903H6.77417V19.3549Z" fill="#D9CB9E"/>
<path d="M6.77417 23.2258H31.9355V25.1613H6.77417V23.2258Z" fill="#D9CB9E"/>
<path d="M6.77417 27.0967H26.129V29.0322H6.77417V27.0967Z" fill="#D9CB9E"/>
<path d="M6.77417 30.9677H26.129V32.9032H6.77417V30.9677Z" fill="#D9CB9E"/>
<path d="M6.77417 34.8387H26.129V36.7742H6.77417V34.8387Z" fill="#D9CB9E"/>
<path d="M6.77417 46.4516H26.129V48.3871H6.77417V46.4516Z" fill="#D9CB9E"/>
<path d="M6.77417 50.3226H26.129V52.2581H6.77417V50.3226Z" fill="#D9CB9E"/>
<path d="M6.77417 54.1935H26.129V56.129H6.77417V54.1935Z" fill="#D9CB9E"/>
<path d="M7.74194 7.74194H9.67743V9.67743H7.74194V7.74194Z" fill="#D9CB9E"/>
<path d="M11.6129 7.74194H13.5484V9.67743H11.6129V7.74194Z" fill="#D9CB9E"/>
<path d="M15.4839 7.74194H17.4194V9.67743H15.4839V7.74194Z" fill="#D9CB9E"/>
<path d="M19.3549 7.74194H31.9355V9.67743H19.3549V7.74194Z" fill="#D9CB9E"/>
</g>
<defs>
<clipPath id="clip0_72_483">
<rect width="60" height="60" fill="white"/>
</clipPath>
</defs>
</svg>
