<svg width="60" height="60" viewBox="0 0 60 60" fill="none" xmlns="http://www.w3.org/2000/svg">
<g clip-path="url(#clip0_72_378)">
<path d="M57.1875 50.625H56.25V16.875C56.25 15.8804 55.8549 14.9266 55.1516 14.2233C54.4484 13.5201 53.4946 13.125 52.5 13.125H47.8125V0.9375C47.8125 0.68886 47.7137 0.450403 47.5379 0.274587C47.3621 0.0987721 47.1236 0 46.875 0L13.125 0C12.8764 0 12.6379 0.0987721 12.4621 0.274587C12.2863 0.450403 12.1875 0.68886 12.1875 0.9375V13.125H7.5C6.50544 13.125 5.55161 13.5201 4.84835 14.2233C4.14509 14.9266 3.75 15.8804 3.75 16.875V50.625H2.8125C2.06658 50.625 1.35121 50.9213 0.823762 51.4488C0.296316 51.9762 0 52.6916 0 53.4375L0 55.3125C0 56.5557 0.49386 57.748 1.37294 58.6271C2.25201 59.5061 3.4443 60 4.6875 60H55.3125C56.5557 60 57.748 59.5061 58.6271 58.6271C59.5061 57.748 60 56.5557 60 55.3125V53.4375C60 52.6916 59.7037 51.9762 59.1762 51.4488C58.6488 50.9213 57.9334 50.625 57.1875 50.625ZM9.375 46.875V18.75H12.1875V46.875H9.375ZM14.0625 7.5H45.9375V46.875H14.0625V7.5ZM47.8125 18.75H50.625V46.875H47.8125V18.75ZM14.0625 1.875H45.9375V5.625H14.0625V1.875ZM5.625 16.875C5.625 16.3777 5.82254 15.9008 6.17417 15.5492C6.52581 15.1975 7.00272 15 7.5 15H12.1875V16.875H8.4375C8.18886 16.875 7.9504 16.9738 7.77459 17.1496C7.59877 17.3254 7.5 17.5639 7.5 17.8125V47.8125C7.5 48.0611 7.59877 48.2996 7.77459 48.4754C7.9504 48.6512 8.18886 48.75 8.4375 48.75H51.5625C51.8111 48.75 52.0496 48.6512 52.2254 48.4754C52.4012 48.2996 52.5 48.0611 52.5 47.8125V17.8125C52.5 17.5639 52.4012 17.3254 52.2254 17.1496C52.0496 16.9738 51.8111 16.875 51.5625 16.875H47.8125V15H52.5C52.9973 15 53.4742 15.1975 53.8258 15.5492C54.1775 15.9008 54.375 16.3777 54.375 16.875V50.625H5.625V16.875ZM37.6219 52.5L36.9937 53.4375H23.0063L22.3781 52.5H37.6219ZM58.125 55.3125C58.125 56.0584 57.8287 56.7738 57.3012 57.3012C56.7738 57.8287 56.0584 58.125 55.3125 58.125H4.6875C3.94158 58.125 3.22621 57.8287 2.69876 57.3012C2.17132 56.7738 1.875 56.0584 1.875 55.3125V53.4375C1.875 53.1889 1.97377 52.9504 2.14959 52.7746C2.3254 52.5988 2.56386 52.5 2.8125 52.5H20.1187L21.7219 54.8906C22.1156 55.4906 21.3375 55.3125 37.5 55.3125C38.1469 55.3125 38.1938 55.0312 39.8813 52.5H57.1875C57.4361 52.5 57.6746 52.5988 57.8504 52.7746C58.0262 52.9504 58.125 53.1889 58.125 53.4375V55.3125Z" fill="#D9CB9E"/>
<path d="M16.875 2.8125C16.6264 2.8125 16.3879 2.91127 16.2121 3.08709C16.0363 3.2629 15.9375 3.50136 15.9375 3.75C15.9375 3.99864 16.0363 4.2371 16.2121 4.41291C16.3879 4.58873 16.6264 4.6875 16.875 4.6875C17.1236 4.6875 17.3621 4.58873 17.5379 4.41291C17.7137 4.2371 17.8125 3.99864 17.8125 3.75C17.8125 3.50136 17.7137 3.2629 17.5379 3.08709C17.3621 2.91127 17.1236 2.8125 16.875 2.8125Z" fill="#D9CB9E"/>
<path d="M20.625 2.8125C20.3764 2.8125 20.1379 2.91127 19.9621 3.08709C19.7863 3.2629 19.6875 3.50136 19.6875 3.75C19.6875 3.99864 19.7863 4.2371 19.9621 4.41291C20.1379 4.58873 20.3764 4.6875 20.625 4.6875C20.8736 4.6875 21.1121 4.58873 21.2879 4.41291C21.4637 4.2371 21.5625 3.99864 21.5625 3.75C21.5625 3.50136 21.4637 3.2629 21.2879 3.08709C21.1121 2.91127 20.8736 2.8125 20.625 2.8125Z" fill="#D9CB9E"/>
<path d="M24.375 2.8125C24.1264 2.8125 23.8879 2.91127 23.7121 3.08709C23.5363 3.2629 23.4375 3.50136 23.4375 3.75C23.4375 3.99864 23.5363 4.2371 23.7121 4.41291C23.8879 4.58873 24.1264 4.6875 24.375 4.6875C24.6236 4.6875 24.8621 4.58873 25.0379 4.41291C25.2137 4.2371 25.3125 3.99864 25.3125 3.75C25.3125 3.50136 25.2137 3.2629 25.0379 3.08709C24.8621 2.91127 24.6236 2.8125 24.375 2.8125Z" fill="#D9CB9E"/>
<path d="M23.2406 27.4594C24.2452 28.3472 25.4186 29.0232 26.6906 29.4469C28.0544 29.9058 29.4988 30.0762 30.932 29.9471C32.3651 29.8179 33.7558 29.3922 35.0156 28.6969C44.3063 23.5312 40.5563 9.375 30 9.375C27.9021 9.37885 25.8552 10.0225 24.1326 11.2199C22.41 12.4174 21.0936 14.1118 20.3591 16.077C19.6246 18.0421 19.5069 20.1845 20.0218 22.2183C20.5366 24.2521 21.6595 26.0804 23.2406 27.4594ZM27.525 17.9813V17.1281C27.525 16.4717 27.7858 15.8422 28.2499 15.378C28.7141 14.9139 29.3436 14.6531 30 14.6531C30.6564 14.6531 31.2859 14.9139 31.7501 15.378C32.2142 15.8422 32.475 16.4717 32.475 17.1281V17.9813C32.475 18.6377 32.2142 19.2672 31.7501 19.7313C31.2859 20.1955 30.6564 20.4562 30 20.4562C29.3436 20.4562 28.7141 20.1955 28.2499 19.7313C27.7858 19.2672 27.525 18.6377 27.525 17.9813ZM34.7625 26.6437C33.3595 27.6031 31.6996 28.1163 30 28.1163C28.3004 28.1163 26.6405 27.6031 25.2375 26.6437C24.9563 26.4469 24.9938 26.5969 25.2375 25.7062C25.5711 24.7201 26.2055 23.8633 27.0513 23.2565C27.8972 22.6497 28.9121 22.3233 29.9531 22.3233C30.9942 22.3233 32.009 22.6497 32.8549 23.2565C33.7008 23.8633 34.3352 24.7201 34.6688 25.7062C35.0063 26.5969 35.0438 26.4469 34.7625 26.6437ZM30 11.25C31.6031 11.251 33.1727 11.7086 34.5252 12.5693C35.8776 13.43 36.9568 14.6582 37.6365 16.1101C38.3162 17.5619 38.5682 19.1774 38.3631 20.7673C38.1579 22.3572 37.5041 23.8557 36.4781 25.0875C36.1837 24.2305 35.7222 23.4404 35.1203 22.7629C34.5185 22.0854 33.7882 21.534 32.9719 21.1406C33.4967 20.6242 33.8943 19.993 34.1335 19.2967C34.3726 18.6003 34.4467 17.858 34.35 17.1281C34.35 15.9744 33.8917 14.868 33.0759 14.0522C32.2601 13.2364 31.1537 12.7781 30 12.7781C28.8463 12.7781 27.7399 13.2364 26.9241 14.0522C26.1083 14.868 25.65 15.9744 25.65 17.1281C25.65 18.4969 25.65 19.8187 27.0281 21.1406C26.2118 21.534 25.4815 22.0854 24.8797 22.7629C24.2778 23.4404 23.8163 24.2305 23.5219 25.0875C22.4959 23.8557 21.8421 22.3572 21.6369 20.7673C21.4318 19.1774 21.6838 17.5619 22.3635 16.1101C23.0432 14.6582 24.1224 13.43 25.4748 12.5693C26.8273 11.7086 28.3969 11.251 30 11.25Z" fill="#D9CB9E"/>
<path d="M40.3125 31.875H19.6875C19.4389 31.875 19.2004 31.9738 19.0246 32.1496C18.8488 32.3254 18.75 32.5639 18.75 32.8125V36.5625C18.75 36.8111 18.8488 37.0496 19.0246 37.2254C19.2004 37.4012 19.4389 37.5 19.6875 37.5H40.3125C40.5611 37.5 40.7996 37.4012 40.9754 37.2254C41.1512 37.0496 41.25 36.8111 41.25 36.5625V32.8125C41.25 32.5639 41.1512 32.3254 40.9754 32.1496C40.7996 31.9738 40.5611 31.875 40.3125 31.875ZM39.375 35.625H20.625V33.75H39.375V35.625Z" fill="#D9CB9E"/>
<path d="M40.3125 39.375H19.6875C19.4389 39.375 19.2004 39.4738 19.0246 39.6496C18.8488 39.8254 18.75 40.0639 18.75 40.3125V44.0625C18.75 44.3111 18.8488 44.5496 19.0246 44.7254C19.2004 44.9012 19.4389 45 19.6875 45H40.3125C40.5611 45 40.7996 44.9012 40.9754 44.7254C41.1512 44.5496 41.25 44.3111 41.25 44.0625V40.3125C41.25 40.0639 41.1512 39.8254 40.9754 39.6496C40.7996 39.4738 40.5611 39.375 40.3125 39.375ZM39.375 43.125H20.625V41.25H39.375V43.125Z" fill="#D9CB9E"/>
</g>
<defs>
<clipPath id="clip0_72_378">
<rect width="60" height="60" fill="white"/>
</clipPath>
</defs>
</svg>
