<svg width="32" height="32" viewBox="0 0 32 32" fill="none" xmlns="http://www.w3.org/2000/svg">
<path d="M16 2C13.6139 2.0027 11.3264 2.91416 9.63915 4.53442C7.95194 6.15468 7.00282 8.35146 7.00001 10.6429C6.99715 12.5154 7.63408 14.3371 8.8131 15.8286C8.8131 15.8286 9.05855 16.1389 9.09864 16.1837L16 24L22.9046 16.1798C22.9406 16.1381 23.1869 15.8286 23.1869 15.8286L23.1877 15.8262C24.3661 14.3354 25.0028 12.5145 25 10.6429C24.9972 8.35146 24.0481 6.15468 22.3608 4.53442C20.6736 2.91416 18.3861 2.0027 16 2ZM16 13.7857C15.3527 13.7857 14.72 13.6014 14.1818 13.256C13.6436 12.9107 13.2241 12.4199 12.9764 11.8456C12.7287 11.2713 12.6639 10.6394 12.7902 10.0297C12.9164 9.42006 13.2281 8.86006 13.6858 8.42052C14.1435 7.98098 14.7267 7.68166 15.3615 7.56039C15.9964 7.43912 16.6544 7.50136 17.2524 7.73924C17.8504 7.97711 18.3616 8.37994 18.7212 8.89678C19.0808 9.41362 19.2727 10.0213 19.2727 10.6429C19.2716 11.4761 18.9265 12.2749 18.313 12.864C17.6994 13.4532 16.8676 13.7847 16 13.7857Z" fill="white"/>
</svg>
