<svg width="33" height="33" viewBox="0 0 33 33" fill="none" xmlns="http://www.w3.org/2000/svg">
<path d="M23.997 24C15.466 24.012 8.99101 17.46 9.00001 9.003C9.00001 8.45 9.44801 8 10 8H12.64C13.135 8 13.556 8.364 13.629 8.854C13.8031 10.0291 14.1449 11.173 14.644 12.251L14.747 12.473C14.8162 12.6224 14.8311 12.7912 14.7891 12.9504C14.7471 13.1096 14.6509 13.2492 14.517 13.345C13.699 13.929 13.387 15.104 14.024 16.02C14.823 17.17 15.83 18.178 16.98 18.977C17.897 19.613 19.072 19.301 19.655 18.484C19.7507 18.3497 19.8904 18.2531 20.0498 18.211C20.2092 18.1688 20.3784 18.1836 20.528 18.253L20.749 18.355C21.827 18.855 22.971 19.197 24.146 19.371C24.636 19.444 25 19.865 25 20.361V23C25 23.1314 24.9741 23.2615 24.9238 23.3829C24.8735 23.5043 24.7997 23.6146 24.7068 23.7075C24.6138 23.8003 24.5034 23.874 24.382 23.9242C24.2606 23.9744 24.1304 24.0001 23.999 24H23.997Z" fill="white"/>
</svg>
