<svg width="41" height="41" viewBox="0 0 41 41" fill="none" xmlns="http://www.w3.org/2000/svg">
<path d="M20.5 18.0266C19.1381 18.0266 18.0267 19.1381 18.0267 20.5C18.0267 21.8619 19.1381 22.9733 20.5 22.9733C21.8619 22.9733 22.9734 21.8619 22.9734 20.5C22.9734 19.1381 21.8619 18.0266 20.5 18.0266ZM27.9182 20.5C27.9182 19.4758 27.9275 18.4608 27.8699 17.4385C27.8124 16.251 27.5415 15.1971 26.6732 14.3287C25.803 13.4585 24.7509 13.1894 23.5634 13.1319C22.5392 13.0744 21.5242 13.0837 20.5019 13.0837C19.4777 13.0837 18.4627 13.0744 17.4404 13.1319C16.2529 13.1894 15.199 13.4603 14.3306 14.3287C13.4604 15.1989 13.1913 16.251 13.1338 17.4385C13.0763 18.4627 13.0856 19.4776 13.0856 20.5C13.0856 21.5224 13.0763 22.5391 13.1338 23.5615C13.1913 24.749 13.4622 25.8029 14.3306 26.6713C15.2008 27.5415 16.2529 27.8105 17.4404 27.8681C18.4646 27.9256 19.4795 27.9163 20.5019 27.9163C21.5261 27.9163 22.541 27.9256 23.5634 27.8681C24.7509 27.8105 25.8048 27.5396 26.6732 26.6713C27.5434 25.8011 27.8124 24.749 27.8699 23.5615C27.9293 22.5391 27.9182 21.5242 27.9182 20.5ZM20.5 24.3056C18.3941 24.3056 16.6945 22.6059 16.6945 20.5C16.6945 18.394 18.3941 16.6944 20.5 16.6944C22.606 16.6944 24.3056 18.394 24.3056 20.5C24.3056 22.6059 22.606 24.3056 20.5 24.3056ZM24.4615 17.4273C23.9698 17.4273 23.5727 17.0303 23.5727 16.5386C23.5727 16.0469 23.9698 15.6498 24.4615 15.6498C24.9532 15.6498 25.3502 16.0469 25.3502 16.5386C25.3504 16.6553 25.3275 16.771 25.2829 16.8789C25.2383 16.9868 25.1728 17.0848 25.0902 17.1673C25.0077 17.2499 24.9096 17.3154 24.8017 17.36C24.6938 17.4046 24.5782 17.4275 24.4615 17.4273Z" fill="#374140"/>
</svg>
