<svg width="110" height="30" viewBox="0 0 110 30" fill="none" xmlns="http://www.w3.org/2000/svg">
<g clip-path="url(#clip0_72_143)">
<path fill-rule="evenodd" clip-rule="evenodd" d="M9.8897 26.9652L19.8622 16.8636C20.2366 16.4839 20.2374 15.8763 19.8622 15.4958C19.4866 15.1153 18.8879 15.1157 18.5119 15.4958L12.3154 21.7729L7.18688 26.9652H9.8897ZM18.64 3.89949C14.6453 7.94643 10.6506 11.993 6.65597 16.0395C5.75451 16.9527 7.13044 18.2826 8.00037 17.4014L18.64 6.62361V3.89949ZM5.06207 14.4249C9.05791 10.3776 13.0534 6.33026 17.0492 2.28252H14.332L3.70638 13.052C2.73797 14.0334 2.25338 15.32 2.25338 16.6057C2.25338 17.8911 2.73797 19.1777 3.70638 20.1583C4.67517 21.14 5.94484 21.6305 7.21413 21.6305C8.48341 21.6305 9.75347 21.14 10.7219 20.1583L16.9184 13.8816C18.1671 12.6164 20.207 12.6164 21.4557 13.8816C22.7063 15.1481 22.7071 17.2114 21.4557 18.4778L13.074 26.9652H15.7772L22.8059 19.8452C23.7743 18.8642 24.2589 17.5777 24.2589 16.2923C24.2589 15.0065 23.7743 13.72 22.8059 12.7386C21.8371 11.7576 20.5675 11.2667 19.2982 11.2667C18.0289 11.2667 16.7588 11.7576 15.7908 12.7386L9.59388 19.016C8.34718 20.2789 6.30877 20.2789 5.06207 19.016C3.81381 17.7511 3.81303 15.6906 5.06207 14.4249ZM20.8936 0V7.5695L19.4944 8.98695C21.2747 9.03545 23.041 9.74793 24.3998 11.1244C25.8081 12.5513 26.5126 14.4218 26.5126 16.2923C26.5126 18.0165 25.8801 19.9055 24.6855 21.1601L24.5419 21.3107C21.8617 24.0928 19.297 26.6289 16.7114 29.2481H1.76489L7.01834 23.9107C5.23761 23.8618 3.47167 23.1493 2.11287 21.7729C0.703851 20.3463 0.00012207 18.4758 0.00012207 16.6057C0.00012207 14.7349 0.703851 12.8648 2.11287 11.4378L13.4103 0H20.8936Z" fill="#374140"/>
<path d="M32.0259 17.6445C32.6934 18.049 33.3037 18.3284 33.8566 18.4826C34.4095 18.6369 34.9253 18.714 35.4041 18.714C36.193 18.714 36.7881 18.5957 37.1893 18.3592C37.5905 18.1227 37.7911 17.8022 37.7911 17.3977C37.7911 17.1714 37.7287 16.9829 37.604 16.8321C37.4792 16.6813 37.2989 16.5544 37.0629 16.4516C36.8269 16.3487 36.5302 16.2579 36.1728 16.1791L35.718 16.082C35.4777 16.0322 35.218 15.9806 34.9388 15.9271C34.5882 15.8723 34.2106 15.7934 33.806 15.6906C33.4014 15.5878 33.0255 15.4267 32.6782 15.2073C32.331 14.9879 32.0427 14.6948 31.8135 14.328C31.5842 13.9612 31.4696 13.4865 31.4696 12.9037C31.4696 12.4101 31.5572 11.9593 31.7325 11.5514C31.9079 11.1435 32.1776 10.7904 32.5417 10.4922C32.9058 10.194 33.3677 9.9626 33.9274 9.79806C34.487 9.63352 35.1512 9.55125 35.9199 9.55125C36.7156 9.55125 37.459 9.64038 38.1502 9.81863C38.8413 9.99688 39.4971 10.2437 40.1174 10.5591L39.4499 12.5129C39.2004 12.4033 38.9374 12.2936 38.6609 12.1839C38.3845 12.0742 38.0996 11.9765 37.8063 11.8908C37.5129 11.8051 37.2146 11.7365 36.9111 11.6851C36.6077 11.6337 36.3009 11.608 35.9907 11.608C35.6131 11.608 35.2962 11.644 35.04 11.716C34.7837 11.7879 34.5764 11.8839 34.4179 12.0039C34.2595 12.1239 34.1465 12.261 34.0791 12.4153C34.0117 12.5695 33.978 12.7255 33.978 12.8832C33.978 13.2465 34.1718 13.5173 34.5595 13.6956C34.9473 13.8738 35.5592 14.0109 36.3953 14.1069C36.901 14.1892 37.3983 14.2903 37.8872 14.4103C38.376 14.5303 38.8127 14.7016 39.197 14.9245C39.5814 15.1473 39.8915 15.4421 40.1275 15.8089C40.3635 16.1756 40.4815 16.6504 40.4815 17.2331C40.4815 17.7885 40.3652 18.2872 40.1326 18.7294C39.9 19.1716 39.5712 19.5435 39.1464 19.8452C38.7216 20.1468 38.2142 20.3782 37.6242 20.5393C37.0342 20.7005 36.3818 20.781 35.6671 20.781C35.2557 20.781 34.8647 20.7639 34.4938 20.7296C34.1229 20.6953 33.7605 20.6387 33.4065 20.5599C33.0525 20.4811 32.7035 20.3731 32.3596 20.236C32.0157 20.0989 31.6651 19.9275 31.3077 19.7218L32.0259 17.6445ZM42.9165 6.86722L44.7169 6.85693V9.87005H48.0344V12.0296H44.7068V16.359C44.7068 16.7841 44.7556 17.1354 44.8534 17.4131C44.9512 17.6908 45.0827 17.9102 45.2479 18.0713C45.4131 18.2324 45.6069 18.3455 45.8295 18.4106C46.052 18.4758 46.288 18.5083 46.5375 18.5083H48.3176L48.2974 20.565H46.3048C45.7452 20.565 45.2192 20.5068 44.727 20.3902C44.2348 20.2737 43.8066 20.0594 43.4425 19.7475C43.0783 19.4356 42.7901 19.0088 42.5777 18.4672C42.3653 17.9256 42.2591 17.2297 42.2591 16.3796V12.0296H40.5194V10.0963L42.1984 9.62324L42.9165 6.86722ZM56.9932 19.2487C56.7235 19.4818 56.4234 19.6909 56.093 19.876C55.7626 20.0612 55.417 20.2154 55.0563 20.3388C54.6955 20.4622 54.3264 20.5565 53.9488 20.6216C53.5711 20.6867 53.1969 20.7159 52.8261 20.709C52.3271 20.7022 51.8568 20.6319 51.4151 20.4982C50.9734 20.3645 50.5874 20.1554 50.257 19.8709C49.9266 19.5864 49.6636 19.2213 49.4681 18.7757C49.2725 18.3301 49.1747 17.7885 49.1747 17.1509C49.1747 16.5681 49.313 16.0865 49.5894 15.706C49.8659 15.3255 50.2384 15.0222 50.7071 14.7959C51.1757 14.5697 51.7253 14.4103 52.3557 14.3177C52.9862 14.2252 53.6554 14.1789 54.3634 14.1789C54.5657 14.1789 54.7844 14.1814 55.0195 14.1863L56.1373 14.2175C56.3404 14.2226 56.538 14.2269 56.7302 14.2303V13.2739C56.7302 13.0477 56.6763 12.8335 56.5684 12.6312C56.4605 12.429 56.302 12.2524 56.093 12.1016C55.884 11.9508 55.6244 11.8308 55.3142 11.7417C55.004 11.6525 54.6467 11.608 54.2421 11.608C53.9251 11.608 53.6234 11.6474 53.3368 11.7262C53.0503 11.8051 52.8008 11.9079 52.5884 12.0348C52.376 12.1616 52.2074 12.3107 52.0826 12.4821C51.9579 12.6535 51.8955 12.8317 51.8955 13.0168H49.4175C49.431 12.4615 49.5608 11.9679 49.8069 11.536C50.053 11.1041 50.3885 10.7407 50.8133 10.4459C51.2381 10.1511 51.7387 9.92832 52.3153 9.77749C52.8918 9.62666 53.5138 9.55125 54.1814 9.55125C54.9771 9.55125 55.6867 9.63695 56.3105 9.80834C56.9342 9.97974 57.4601 10.2214 57.8883 10.5333C58.3165 10.8453 58.6419 11.2189 58.8644 11.6543C59.0869 12.0896 59.1981 12.5678 59.1981 13.0888V20.4519H57.1955L56.9932 19.2487ZM53.706 18.7346C54.0162 18.7346 54.3314 18.6951 54.6517 18.6163C54.972 18.5375 55.2721 18.4312 55.5519 18.2975C55.8317 18.1638 56.0745 18.0027 56.2801 17.8142C56.4858 17.6256 56.6358 17.4183 56.7302 17.192V15.9683L56.0077 15.9499C55.923 15.9476 55.8368 15.9451 55.7491 15.9425C55.3985 15.9323 55.0411 15.9271 54.677 15.9271C54.2994 15.9271 53.9319 15.946 53.5745 15.9837C53.2171 16.0214 52.9002 16.0882 52.6238 16.1842C52.3473 16.2802 52.1231 16.4139 51.9512 16.5853C51.7792 16.7567 51.6932 16.9795 51.6932 17.2537C51.6932 17.5279 51.7455 17.7593 51.85 17.9479C51.9545 18.1364 52.0978 18.2906 52.2799 18.4106C52.4619 18.5306 52.676 18.6146 52.9221 18.6626C53.1683 18.7106 53.4295 18.7346 53.706 18.7346ZM67.813 12.0605L66.5892 12.0707C66.1104 12.0707 65.6789 12.141 65.2945 12.2816C64.9102 12.4221 64.5815 12.6312 64.3084 12.9089C64.0353 13.1865 63.8263 13.5327 63.6813 13.9475C63.5363 14.3623 63.4638 14.8405 63.4638 15.3821V20.4519H61.006V9.87005H62.9986L63.2211 11.1349C63.5717 10.7716 64.0151 10.4699 64.5511 10.23C65.0872 9.99002 65.7227 9.87005 66.4577 9.87005H67.813V12.0605ZM88.4211 9.87005L84.1325 20.4519H81.9073L79.6923 15.2073L77.7099 20.4519H75.4746L71.1962 9.87005H73.836L76.4152 16.5236L76.5669 17.1303H76.6074L76.7692 16.5236L78.4988 12.369L77.4469 9.87005H80.0868L82.848 16.5236L82.9997 17.1303H83.0503L83.1919 16.5236L85.7711 9.87005H88.4211ZM96.1054 19.2487C95.8357 19.4818 95.5356 19.6909 95.2052 19.876C94.8748 20.0612 94.5293 20.2154 94.1685 20.3388C93.8078 20.4622 93.4386 20.5565 93.061 20.6216C92.6834 20.6867 92.3091 20.7159 91.9383 20.709C91.4393 20.7022 90.969 20.6319 90.5273 20.4982C90.0856 20.3645 89.6996 20.1554 89.3692 19.8709C89.0388 19.5864 88.7758 19.2213 88.5803 18.7757C88.3847 18.3301 88.287 17.7885 88.287 17.1509C88.287 16.5681 88.4252 16.0865 88.7016 15.706C88.9781 15.3255 89.3507 15.0222 89.8193 14.7959C90.2879 14.5697 90.8375 14.4103 91.4679 14.3177C92.0984 14.2252 92.7676 14.1789 93.4757 14.1789C93.678 14.1789 93.8966 14.1814 94.1317 14.1863L95.2495 14.2175C95.4526 14.2226 95.6503 14.2269 95.8424 14.2303V13.2739C95.8424 13.0477 95.7885 12.8335 95.6806 12.6312C95.5727 12.429 95.4143 12.2524 95.2052 12.1016C94.9962 11.9508 94.7366 11.8308 94.4264 11.7417C94.1162 11.6525 93.7589 11.608 93.3543 11.608C93.0374 11.608 92.7356 11.6474 92.449 11.7262C92.1625 11.8051 91.913 11.9079 91.7006 12.0348C91.4882 12.1616 91.3196 12.3107 91.1949 12.4821C91.0701 12.6535 91.0077 12.8317 91.0077 13.0168H88.5297C88.5432 12.4615 88.673 11.9679 88.9191 11.536C89.1652 11.1041 89.5007 10.7407 89.9255 10.4459C90.3503 10.1511 90.851 9.92832 91.4275 9.77749C92.004 9.62666 92.626 9.55125 93.2936 9.55125C94.0893 9.55125 94.799 9.63695 95.4227 9.80834C96.0464 9.97974 96.5724 10.2214 97.0005 10.5333C97.4287 10.8453 97.7541 11.2189 97.9766 11.6543C98.1991 12.0896 98.3104 12.5678 98.3104 13.0888V20.4519H96.3077L96.1054 19.2487ZM92.8182 18.7346C93.1284 18.7346 93.4436 18.6951 93.7639 18.6163C94.0842 18.5375 94.3843 18.4312 94.6641 18.2975C94.9439 18.1638 95.1867 18.0027 95.3923 17.8142C95.598 17.6256 95.748 17.4183 95.8424 17.192V15.9683L95.1199 15.9499C95.0352 15.9476 94.949 15.9451 94.8613 15.9425C94.5107 15.9323 94.1533 15.9271 93.7892 15.9271C93.4116 15.9271 93.0441 15.946 92.6867 15.9837C92.3294 16.0214 92.0124 16.0882 91.736 16.1842C91.4595 16.2802 91.2353 16.4139 91.0634 16.5853C90.8914 16.7567 90.8055 16.9795 90.8055 17.2537C90.8055 17.5279 90.8577 17.7593 90.9622 17.9479C91.0667 18.1364 91.21 18.2906 91.3921 18.4106C91.5742 18.5306 91.7882 18.6146 92.0344 18.6626C92.2805 18.7106 92.5418 18.7346 92.8182 18.7346ZM110 9.87005L105.55 20.2154C105.226 21.0038 104.924 21.6448 104.644 22.1384C104.365 22.6321 104.065 23.016 103.744 23.2902C103.424 23.5645 103.063 23.7513 102.662 23.8507C102.261 23.9501 101.78 23.9998 101.221 23.9998H99.5923L99.5822 21.9431H101.362C101.578 21.9431 101.764 21.8934 101.919 21.7939C102.074 21.6945 102.214 21.554 102.338 21.3723C102.463 21.1906 102.579 20.9713 102.687 20.7142L102.947 20.0865C102.978 20.0113 103.009 19.9343 103.041 19.8555L98.7933 9.87005H101.514L104.285 16.5956L104.407 17.1303L107.36 9.88033L110 9.87005Z" fill="#374140"/>
</g>
<defs>
<clipPath id="clip0_72_143">
<rect width="110" height="30" fill="white"/>
</clipPath>
</defs>
</svg>
